<svg version="1.1" xmlns="http://www.w3.org/2000/svg" xmlns:xlink="http://www.w3.org/1999/xlink" x="0px" y="0px"
	viewBox="0 0 1024 800" style="enable-background:new 0 0 1024 1024;" xml:space="preserve">
	<style type="text/css">
		.st2 {
			fill: #619EBC;
		}

		.st3 {
			fill: #DE7A31;
		}

		.st4 {
			opacity: 0.2;
		}

		.st5 {
			fill: #60A0C2;
		}

		.st6 {
			fill: #F5D548;
		}

		.st7 {
			fill: #132978;
		}

		.st8 {
			fill: #E27930;
		}
	</style>
	<g id="shape">
		<path id="crown_back" class="st2" d="M503.3,462.8c75.6,0,149,1.6,219.1,4.6C750.4,426,972.7,81.6,503.3,227.7
		C33.9,81.6,256.2,426,284.3,467.4C354.3,464.4,427.7,462.8,503.3,462.8z" />
		<path id="crown_front" class="st3" d="M557.9,463.1c9.3,0.1,18.4,0.3,27.5,0.4c8.2,0.1,16.4,0.2,24.5,0.4
		c64.4-24.1,165.5-100.3,188-167c11.3-83-39.4-148.6-294.6-69.2c-255.2-79.4-305.9-13.8-294.6,69.2c22.5,66.8,123.6,142.9,188,167
		c8.1-0.2,16.3-0.2,24.5-0.4c9.2-0.1,18.3-0.3,27.5-0.4c0.3,0,0.6,0,0.9,0c17.8-0.2,35.7-0.3,53.7-0.3c18.1,0,36,0.1,53.7,0.3
		C557.4,463.1,557.7,463.1,557.9,463.1z" />
		<g id="shadow" class="st4">

			<image style="overflow:visible;" width="461" height="340" transform="matrix(1 0 0 1 273 158)">
			</image>
		</g>
		<path id="heart" class="st5" d="M590.4,175.4c-38.7,0-72,14.3-87.1,47.3c-15.1-33-48.4-47.3-87.1-47.3c-52.9,0-95.8,43-95.8,95.8
		c0,110.5,182.9,209,182.9,209s182.9-98.5,182.9-209C686.2,218.4,643.3,175.4,590.4,175.4z" />
		<circle id="circle" class="st6" cx="503.3" cy="327.8" r="65.3" />
	</g>
</svg>