<?xml version="1.0" encoding="UTF-8"?>
<svg width="736px" height="530px" viewBox="0 0 736 530" version="1.1" xmlns="http://www.w3.org/2000/svg" xmlns:xlink="http://www.w3.org/1999/xlink">
    <!-- Generator: Sketch 63.1 (92452) - https://sketch.com -->
    <title>img-scheduled-maintenance-robot</title>
    <desc>Created with Sketch.</desc>
    <defs>
        <rect id="path-1" x="0" y="0" width="743" height="550"></rect>
    </defs>
    <g id="a_initial_1011" stroke="none" stroke-width="1" fill="none" fill-rule="evenodd">
        <g id="a_27_404_error" transform="translate(-630.000000, -161.000000)">
            <g id="img-404" transform="translate(623.000000, 145.000000)">
                <g id="Group-3" transform="translate(0.000000, 0.583239)">
                    <g id="img-scheduled-maintenance-robot">
                        <mask id="mask-2" fill="white">
                            <use xlink:href="#path-1"></use>
                        </mask>
                        <g id="Mask" opacity="0"></g>
                        <g id="Group-4" mask="url(#mask-2)">
                            <g transform="translate(7.000000, 1.000000)">
                                <path d="M782,0 C774.395259,2.61268084 766.790517,5.22536168 759.184704,7.83804252 C746.279689,11.4576606 733.243908,15.2143936 720.418209,19.626707 C718.264872,20.3679842 716.113679,21.1306856 713.968916,21.9126688 L713.188613,22.1901122 C710.690142,23.0502937 708.152013,23.6887348 705.626746,24.322891 C703.10791,24.9581185 700.600864,25.5847762 698.161344,26.4235335 C695.921188,27.1948046 693.738911,28.1438966 691.65846,29.4347044 L582.508181,64.5628893 C579.844646,65.3534421 576.84991,66.3164598 573.825163,67.3566046 C571.690048,68.0914545 569.566722,68.8584408 567.554869,69.6136437 L522.079695,85.9656622 C516.987359,87.2875352 512.007566,88.8193653 507.102803,90.5065208 C495.819489,94.3896565 484.907033,99.0108558 473.834873,103.314977 L453.044292,110.792022 L448.171684,112.456682 L435.776867,116.690103 C434.264494,116.641899 432.381262,117.020036 430.618076,117.626341 C429.625548,117.968057 428.663031,118.384757 427.831279,118.83895 C424.92765,120.422198 421.882538,121.827626 418.749535,123.12379 L401.289178,129.404293 C399.069386,130.142357 396.849595,130.881492 394.645881,131.638837 C393.770184,131.939847 392.901989,132.24407 392.039154,132.550436 C383.467608,135.591601 374.730998,138.346753 366.737177,142.091703 L365.576369,142.431276 C363.244034,143.080429 360.858107,143.574257 358.578292,144.359454 C357.114152,144.862923 355.687526,145.48958 354.333785,146.359403 C353.752845,146.633632 353.123672,146.881082 352.476278,147.103894 C351.210428,147.538805 349.851329,147.890162 348.513666,148.232949 C347.180291,148.572522 345.874783,148.903526 344.7054,149.306301 C343.353803,149.771206 342.191923,150.326093 341.386968,151.097364 C339.752404,152.664544 346.246714,150.557474 347.605813,151.072726 C346.795498,151.355525 345.98304,151.646895 345.177012,151.940406 L345.331358,151.917911 L345.486775,151.896486 L345.249898,151.931836 L345.177012,151.940406 C340.067526,153.494732 334.924813,154.918369 329.879638,156.654801 C326.660887,157.762432 323.48501,158.995394 320.391665,160.466165 C318.899656,160.964278 317.415151,161.465604 315.932789,161.9755 C305.125374,165.695812 294.547335,169.75784 283.91999,173.837007 C273.278711,177.92153 262.588128,182.024264 251.544907,185.824916 L250.660635,186.128069 C252.224457,186.781507 253.477444,187.312827 254.740078,187.840933 C253.104442,188.407603 251.45916,188.977487 249.806374,189.549513 L249.213644,189.566652 C247.629457,189.650207 246.061347,190.014418 244.520034,190.544667 C242.56606,191.216315 240.666751,192.15041 238.839255,193.113428 C235.25822,194.997686 231.492828,196.680557 227.317991,198.117049 C226.641657,198.349502 225.954604,198.575527 225.24933,198.798339 C221.101289,199.045788 216.910375,199.878118 211.833044,201.625262 C210.655087,202.03125 209.426752,202.485443 208.137322,202.995339 C199.787649,206.29895 191.365089,209.359397 182.906087,212.270945 C164.604332,218.568588 146.091422,224.177443 127.658901,230.047673 C110.779484,235.426217 94.1701712,239.026554 77.2886101,244.835725 C75.6379685,245.403466 73.9937581,245.987275 72.3345418,246.603221 C68.6699032,246.798181 64.178872,248.128624 59.8003846,249.389438 L58.7446171,249.722584 C57.0628921,250.301038 55.5205069,251.078736 55.4583399,251.767524 C55.4122506,252.238856 56.3458277,252.814096 56.9492765,252.635204 C65.2625075,250.17035 68.1286214,252.468095 76.2789319,250.075012 C85.1548816,249.06379 94.759686,247.314504 104.680685,245.188153 C119.754043,241.956313 135.545538,237.209782 150.991898,233.191674 C162.830428,229.919128 174.66467,226.647653 186.498912,223.376178 C187.389616,223.372964 188.91378,223.144796 189.041329,223.41367 C189.28571,223.901071 188.865546,224.212793 188.204218,224.44096 C187.342455,224.736614 186.047666,224.895153 185.311308,225.110467 C154.090602,234.179329 122.887046,244.870004 91.6920652,254.396273 C81.4387945,257.207127 71.2112481,260.181877 60.9611929,263.709371 C56.0210586,265.409381 51.0734214,267.24115 46.1182813,269.238957 L46.5663125,269.08256 C50.370291,267.773542 53.5740361,267.273287 56.6630938,266.905862 L58.3405315,266.711973 C61.9590807,266.309198 65.535828,265.917135 69.8832319,264.420655 C70.740708,264.126072 71.6228366,263.789712 72.5489108,263.400863 C98.85735,256.487274 125.161502,249.574757 151.471013,242.66224 C151.87617,243.04252 154.144195,243.074656 151.264147,244.065525 C150.87078,244.201569 150.379875,244.352609 149.780713,244.526145 C146.313294,245.529869 142.821223,246.595723 139.345229,247.632654 C136.026796,248.068636 132.70622,249.042366 129.365279,250.192845 C127.823965,250.723094 126.271933,251.292978 124.732764,251.859648 C123.178588,252.429532 121.635131,252.997273 120.085243,253.530735 C118.969452,253.9153 117.857949,254.279511 116.735727,254.612657 C115.918981,254.892243 115.09366,255.175042 114.26834,255.458913 C93.348066,260.763544 72.3420447,266.65627 51.1398758,273.95228 C49.4302828,274.540374 47.7239053,275.137038 46.016456,275.742272 C42.3561048,277.041649 37.6635667,278.565981 37.9861921,280.06139 C38.3206078,281.590006 43.0110022,279.825724 46.681,278.745944 C73.2916995,270.929326 99.986003,262.880255 125.920368,257.062514 C132.823051,254.9608 139.643202,253.061545 146.25863,251.685041 C145.396866,252.629848 143.575802,253.390407 141.550014,254.105975 C137.019325,255.585316 132.421109,257.27997 127.975095,258.505434 C105.288421,264.745231 82.6221115,270.517981 59.9332934,278.324959 C52.8977018,280.745893 45.8492481,283.368215 38.8072255,286.257268 L22.8860376,291.735435 C25.7800195,292.980181 34.4051575,289.552309 35.0686296,291.550115 C32.2046594,293.73217 25.7703729,296.486251 28.843353,297.708501 C26.6964471,299.601329 20.4304404,301.340974 19.6662148,303.273436 L16.9255068,304.694932 L17.4978721,304.7817 C29.2613726,303.497319 43.0163614,298.812918 55.8988683,295.626069 C60.517449,295.241505 66.0588884,293.294045 71.2155354,291.910042 C86.197787,287.887649 101.288295,283.630661 114.931812,281.728192 C113.718483,282.208094 112.511585,282.651575 111.301472,283.067205 C104.986161,285.240689 98.7072917,286.665399 92.4037704,288.679273 C72.6164371,293.913204 52.7797989,299.907695 32.8745626,306.758082 L32.0717506,307.034454 C27.632168,307.954623 23.436966,309.096533 19.4025409,310.484821 C12.6199048,312.818987 6.28315627,315.854796 0,319.726148 C8.20283093,318.098981 16.8172504,316.05297 10.8127739,321.583626 L31.8112922,314.357245 C48.7764572,309.850665 65.7426941,305.344085 82.7100028,300.838576 C89.7798934,298.474416 92.6942404,299.881986 98.5422275,298.621172 C90.3619054,304.961663 98.0288137,303.119182 107.520003,300.336179 C116.736799,297.326079 125.65991,295.762113 134.912077,292.578477 C135.859588,292.252829 136.821033,291.906828 137.779263,291.540475 L137.728886,291.790066 C137.356956,293.095871 135.084644,294.153155 132.532581,295.030476 C131.25387,295.470744 129.904417,295.864949 128.694303,296.224875 C120.793733,298.564398 112.974622,301.066744 105.186596,303.746911 C101.219697,305.111632 97.2581571,306.522416 93.2955455,307.98676 L92.9021784,308.124946 C92.3491063,308.31455 91.7756691,308.489157 91.2000883,308.661622 C90.6352259,308.831944 90.0703635,309.002266 89.5440875,309.183301 C88.4433025,309.562509 87.5000788,309.990993 86.9534378,310.611224 C85.8151382,311.899889 86.910564,312.415141 89.0220989,312.522262 C92.0597081,312.686157 96.4231897,311.722068 100.282904,310.441973 C119.110936,304.190392 137.048265,300.630761 155.614766,295.059399 C155.701586,295.282211 155.774471,295.51145 155.844141,295.74176 C154.161344,296.493749 152.418524,297.469621 150.777529,298.034149 L150.242678,298.205542 C132.044891,303.475895 113.93178,309.334342 95.8615428,315.552715 C91.7992497,316.949572 87.7380284,318.365712 83.6789509,319.797919 C79.9253491,321.091941 75.9445163,322.502724 77.0345828,323.82674 C78.1803852,325.223597 82.9726049,323.78282 87.3843195,322.533789 C94.5903345,322.57878 105.481353,318.936667 113.527695,318.066844 C110.598342,319.367293 107.630403,320.496348 104.634595,321.527923 C100.381514,322.991196 96.0630497,324.259508 91.7027836,325.543889 C87.332871,326.829341 82.9190126,328.130861 78.4719271,329.66162 C76.6722991,330.280779 74.8651682,330.937431 73.0516062,331.648714 C79.6648908,330.975994 87.1624476,328.848571 91.1089814,329.855509 C84.3617162,332.6278 73.060181,336.029962 75.2660383,337.633564 C77.3111188,339.127901 75.7569433,340.783992 74.1223795,342.94248 C73.8512027,343.300264 77.3829324,342.999254 79.4891082,342.678962 C83.1280224,342.130503 87.0198922,341.330309 90.8110085,340.630809 C89.3447243,341.851988 87.1495854,342.691816 84.8601242,343.479156 L83.830081,343.831584 L82.8225466,344.1733 L82.0175909,344.455028 C69.3601715,348.959465 63.2667318,353.393203 64.8702122,356.841427 C65.2925192,357.742315 67.3686832,357.308475 69.9046688,356.602548 C90.6116453,350.839439 111.322909,345.063475 132.032029,339.291796 C145.224299,336.785165 158.878535,333.412997 172.980801,329.217068 C175.035529,329.439879 177.895211,328.307611 180.620914,327.402438 C182.475206,327.558835 182.698149,328.278688 181.411935,329.523434 C173.110495,333.963599 167.8681,337.969923 168.770594,341.103212 C168.824186,341.349591 168.891712,341.58847 168.968885,341.826279 C153.135588,351.727472 150.974749,354.418351 157.344724,356.274757 C154.372498,359.673706 153.792629,362.55419 151.479588,365.714259 C148.615617,369.618819 156.641594,369.188192 154.583651,372.48859 L153.811923,372.748894 C148.439835,374.597802 145.911352,376.088926 149.52347,376.832346 C153.116295,377.574694 158.221494,377.289752 164.251694,376.381366 C172.059015,374.729561 179.192144,373.942222 187.560039,371.590916 C190.362914,372.455382 196.51209,369.994813 200.720154,369.46028 C200.536868,370.534703 194.120803,372.17901 195.98367,372.653556 C197.954793,373.151669 202.584093,371.870502 206.673182,370.624685 L206.686044,370.617186 L206.449166,371.003893 C203.080357,376.884835 221.085212,368.137335 223.83771,370.181204 C222.566502,370.568982 221.361748,370.957831 220.237382,371.345609 C209.366729,375.086274 205.367674,378.785161 205.170455,382.376928 C202.124271,388.209666 197.63324,394.413042 197.243088,399.56449 C197.317045,399.807655 197.394218,400.046535 197.467104,400.288628 C188.018789,404.140699 188.994168,406.660184 186.771161,409.58673 C181.225434,413.461296 171.474859,418.497053 172.457741,420.820507 C173.927241,424.289085 170.891775,427.870139 161.659973,433.000163 C159.477696,434.214915 155.43684,436.572648 157.886006,436.265211 C168.68699,434.911202 160.823934,440.183697 161.94294,442.227565 C160.119731,443.821525 167.56048,442.95813 160.453075,445.953233 C157.771319,446.923749 155.10564,447.873912 152.459254,448.785512 C138.205857,453.689511 124.44015,457.548009 112.088207,458.34606 C111.036726,458.413546 109.805176,458.668494 108.617572,459.076625 C107.820119,459.351926 107.045175,459.692571 106.347404,460.094274 C104.569213,461.114066 104.317329,462.004242 105.360235,462.219555 C113.975726,464.015974 113.619873,470.990621 136.364427,464.666198 C137.187604,464.393039 137.996848,464.119881 138.822168,463.838153 C147.847104,462.30418 157.051039,460.493836 167.129599,457.308058 L167.125311,457.311271 C167.56584,457.738684 169.676303,457.899365 166.321427,459.129114 C158.921409,461.845702 151.509599,464.705833 144.092431,467.256383 C135.832792,470.099374 127.559219,472.564228 119.243845,474.040355 C118.489266,474.172114 117.675735,474.358505 116.900791,474.508474 C114.668138,474.946599 111.949939,475.429715 109.774093,476.17849 C108.503956,476.615544 107.422465,477.139366 106.745058,477.792804 C104.620661,479.824889 109.809464,478.740824 112.940323,478.290916 C117.310236,477.668543 121.792693,476.962616 126.376974,476.123859 C133.561552,474.812698 140.875824,473.360137 151.430283,471.334479 C150.683207,471.60978 149.946849,471.872227 149.22121,472.121819 C141.070899,474.927317 134.295766,476.117431 127.805744,477.207923 C121.311434,478.300557 115.092589,479.298925 108.030201,481.730571 C106.175909,482.367941 104.263737,483.103862 102.271177,483.9694 C110.521169,484.381815 122.951357,480.267298 133.562624,479.199302 C117.883673,485.352332 128.647142,485.083458 127.66426,488.029285 C114.708868,489.79571 99.1263832,497.273826 87.7562498,497.105646 C100.745941,497.912267 118.295262,495.3028 132.834841,494.807901 C125.808896,498.627835 117.994073,501.936803 108.542543,505.188996 C107.064468,505.69782 105.541376,506.206645 103.972195,506.717612 C108.896252,506.216286 109.491126,507.208226 107.249898,509.223172 L107.244538,509.224243 C96.8412093,514.0554 94.6621481,517.182261 99.1446045,518.932618 L99.5744144,519.090086 L103.609911,518.483781 C138.649601,513.039893 177.07525,503.351871 213.751647,495.872684 C215.47303,495.54168 217.20942,495.22353 218.937234,494.894669 L219.15589,495.074632 C220.790454,496.140486 225.392957,494.632223 229.5828,493.679917 C235.492954,492.31948 241.963683,489.669307 247.474039,489.076928 C241.702153,491.164716 236.316131,493.794536 230.490653,495.79877 C229.008291,496.309737 227.494846,496.787497 225.931024,497.193485 C223.968475,497.709808 221.815138,498.201494 220.051953,498.807799 C218.138709,499.466593 216.673497,500.26143 216.414111,501.393699 C215.886763,503.556472 222.14741,501.254442 225.519435,500.372836 C234.367517,498.046168 243.4021,495.257809 252.314492,492.82402 C254.948016,492.092384 258.850604,491.233274 258.323256,492.529438 C258.037073,493.228938 257.202106,493.692771 256.150626,494.053769 C254.722928,494.545455 252.878283,494.844322 251.391633,495.238527 C250.05933,495.594169 248.694871,495.917674 247.448315,496.346158 C246.251064,496.758574 245.167429,497.263114 244.291731,497.974397 C248.079632,498.60534 255.539674,494.163033 258.679108,495.165685 C257.57618,495.969092 256.1935,496.53362 254.74758,497.031733 C254.271681,497.195628 253.786135,497.34774 253.305949,497.512706 C252.821475,497.665889 252.334857,497.814787 251.863245,497.977611 L250.72173,498.40181 C249.267236,498.330039 247.395795,498.666399 245.71407,499.245923 C244.730116,499.584426 243.799754,500.005411 243.056965,500.496025 C241.210176,501.732201 244.247785,501.114113 246.006683,500.830243 C251.47095,501.281222 260.436935,497.9594 267.145613,497.075652 C266.692223,497.377733 266.284922,497.695883 265.754358,497.995821 L264.611771,498.44573 L244.746193,505.282191 L244.207055,505.365745 C242.93156,505.548922 241.623908,505.638904 240.440591,506.045964 L240.235869,506.115592 C239.030043,506.531222 237.688093,506.948993 236.333281,507.387118 C234.96775,507.824172 233.572208,508.262297 232.257054,508.714347 C228.585984,509.978375 225.520507,511.312031 225.279342,512.657471 C225.023171,514.136812 231.254878,514.324273 239.487721,511.654818 C246.753759,509.285302 254.074462,507.322846 261.372655,505.177212 C273.122222,501.66043 284.868573,498.164001 296.61278,494.664359 C294.150752,496.215471 291.313578,497.369164 288.35207,498.371816 C286.965102,498.849576 285.559913,499.303769 284.154724,499.744036 C282.749535,500.1993 281.338987,500.638496 279.952019,501.115185 C278.959491,501.457972 277.970177,501.825397 277.010876,502.203534 C270.705211,503.56397 264.539958,505.436445 258.437943,507.536016 C250.649916,510.216184 242.961571,513.275559 235.226065,516.154971 C251.233,512.083302 266.833706,508.929661 283.239368,503.284385 C283.970367,503.03265 284.708868,502.763777 285.447369,502.5099 C295.592384,499.973275 306.541282,495.500974 316.099997,494.410482 C318.03039,494.422265 320.13335,493.829886 322.2824,493.091823 C322.961949,492.857228 323.646859,492.607636 324.331768,492.356973 C325.011317,492.107381 325.696226,491.870644 326.380064,491.636049 C327.114278,491.383243 327.853851,491.145434 328.583777,490.93762 C328.687746,491.150791 328.738123,491.369317 328.737051,491.617838 C323.839791,494.548668 317.996091,496.955677 312.079506,498.992047 C308.651745,500.170378 305.19826,501.227662 301.902336,502.186394 C295.320135,504.113501 288.861196,506.2195 282.440844,508.427263 C272.395511,511.885128 262.448788,515.571162 252.344504,519.109368 C269.785568,515.745769 287.163393,512.227916 306.032155,505.870285 C304.447968,507.102176 302.35787,507.968785 300.145582,508.730415 C299.398506,508.987506 298.640711,509.232813 297.879701,509.480262 C297.117619,509.727712 296.360897,509.975161 295.618108,510.23118 C295.024306,510.43471 294.429432,510.639311 293.863497,510.863194 L278.989502,515.981435 C276.128748,517.068713 273.254059,518.101359 270.375083,519.091157 C264.62249,521.071824 258.824879,522.905736 253.018694,524.728935 C247.210365,526.549991 241.399893,528.39033 235.623719,530.377424 C230.664292,532.083862 225.723086,533.902776 220.840831,535.948787 C242.7054,531.490411 265.672898,522.426905 287.661801,517.001227 C288.676839,516.709858 289.692948,516.390637 290.69941,516.044636 C292.082091,515.567948 293.455124,515.050554 294.833517,514.547085 C296.207623,514.031833 297.589231,513.525151 298.957977,513.05489 C301.92806,512.032955 304.870275,511.183486 307.779263,510.884618 C315.539422,509.429916 309.327007,512.94884 308.07938,514.742045 L313.079537,513.020611 C317.431229,511.449146 317.434444,509.440628 320.90615,508.245157 L320.956527,508.228018 C330.353394,504.994035 321.06264,510.127273 323.913748,509.879824 C324.528987,509.827334 325.49472,509.495259 326.265376,509.347432 C332.317014,508.08769 338.278617,506.549432 344.076227,504.554839 C349.153558,502.806625 354.108698,500.705982 358.89663,498.132936 C361.409035,496.844271 364.006116,495.553463 366.364175,494.742557 C368.952681,493.851311 371.250717,493.544945 372.830617,494.467256 C373.95927,495.121765 375.413764,494.927876 376.969011,494.393343 C378.469594,493.875948 380.060212,493.035049 381.521137,492.358044 C384.934964,490.771582 388.380946,489.426143 391.852653,488.230672 C397.170077,486.401046 402.550739,484.915278 407.963557,483.419869 C413.380663,481.922318 418.820277,480.417268 424.273825,478.540508 C425.701523,478.048823 427.13458,477.527144 428.570852,476.972257 C430.82923,476.10779 433.521705,475.093355 436.508937,474.066065 C442.071814,472.151812 448.676523,470.200068 455.488099,469.175992 C442.780303,474.634877 430.283661,477.483224 421.164402,482.821063 C413.197377,484.024031 405.572271,486.016482 398.156174,488.568104 C388.753948,491.804229 379.70436,495.930529 370.81662,500.425325 C368.01696,499.921857 364.246209,500.237864 359.514013,501.865031 C358.725135,502.137119 357.908389,502.448841 357.064847,502.796984 C353.479525,504.279539 349.843826,505.619622 346.185618,506.879365 C341.819993,508.381201 337.422212,509.761991 333.034078,511.155635 C328.641657,512.549279 324.249236,513.928997 319.897544,515.427619 C317.57164,516.227813 315.272532,517.061215 312.978784,517.939607 C311.061253,517.879619 308.61423,518.633751 306.088963,519.502502 L276.290596,529.757194 C265.619306,533.429301 254.948016,537.101409 244.286372,540.801367 L243.570379,541.047746 L242.906907,541.259845 C240.653889,542.03433 238.355853,542.927719 238.395511,544 C239.891807,543.837176 241.51458,543.35406 243.192018,542.776678 C243.726869,542.59243 244.275653,542.402826 244.818007,542.199296 C245.362504,542.011835 245.907002,541.810447 246.460074,541.620843 C248.568393,540.895634 250.702437,540.26362 252.729296,540.167211 C250.267268,541.558713 248.466568,542.589217 246.37647,543.777188 C248.352952,543.346562 250.142934,542.833452 251.789288,542.266782 C258.542984,539.942257 262.969705,536.718987 268.53794,534.023823 C273.156521,533.683178 279.463258,530.4267 283.930708,530.339932 C280.852369,531.721793 274.727846,533.697104 280.532959,533.548205 C282.590902,533.501072 289.045553,531.571823 295.841052,529.232301 C303.756628,526.508214 312.121308,523.236739 314.496517,521.713479 C318.896441,518.894055 324.097034,516.47312 329.268686,514.693841 C337.111377,511.994392 344.875824,510.775355 349.642319,511.922621 C351.394786,512.344678 353.339113,511.924763 355.297374,511.250972 C356.281328,510.91247 357.265282,510.517194 358.235302,510.121917 C359.192459,509.721285 360.144258,509.333507 361.051039,509.021785 L361.427256,508.892168 C362.746698,508.437975 363.875351,507.743831 365.109044,507.008981 C366.338451,506.280559 367.670754,505.512501 369.402856,504.915837 L369.670817,504.823713 C371.373979,504.649106 372.703067,504.353452 373.772769,503.984956 C377.44491,502.721999 378.212351,500.57958 381.453611,499.183793 C385.789225,496.75536 390.045522,494.78969 394.061726,493.406758 C399.039375,491.693894 403.650452,490.887273 407.542322,491.175428 C413.876927,491.6639 421.020775,489.572898 429.683427,486.648495 C431.797106,485.938283 433.918288,485.208789 436.040541,484.479296 C438.10813,483.768012 440.184294,483.053515 442.24974,482.324021 L448.40749,480.206239 C458.415308,476.761229 468.43063,473.419054 478.467388,470.684255 C482.401059,469.624828 486.132152,468.618962 489.800006,467.358148 C492.438889,466.449762 495.03597,465.408546 497.63841,464.115596 C499.546294,463.165433 501.392012,462.296682 503.015857,461.73751 C505.336402,460.938388 507.221777,460.774493 508.276473,461.981746 C509.145739,462.970473 512.839318,462.786225 516.859809,461.402222 C517.581161,461.154772 518.305728,460.860189 519.031367,460.537755 C522.305854,459.075554 525.524605,457.836164 528.756218,456.723177 C532.709183,455.36274 536.680369,454.200478 540.791967,453.122841 C541.480092,452.942877 542.160714,452.74149 542.818827,452.515465 C544.903565,451.797754 546.72999,450.859374 547.588538,449.714251 C548.876895,448.037807 551.18565,446.717006 554.38618,445.615802 C555.841745,445.115547 557.481668,444.652784 559.29523,444.233941 C560.024085,444.05612 560.704707,443.865445 561.321018,443.653345 C563.972763,442.740675 565.614829,441.487359 566.671669,440.272607 L569.116547,439.431707 C572.145582,441.323464 565.722014,443.752968 558.916869,446.095704 C560.203083,446.194255 560.607169,446.379575 561.164528,446.244602 C565.392957,445.140185 569.54207,443.832238 573.653668,442.417169 C578.712777,440.675382 583.717222,438.762201 588.718451,436.852234 C593.718609,434.95405 598.714479,433.045154 603.77466,431.303367 C606.68472,430.302857 609.621576,429.34948 612.577725,428.494655 C613.401973,428.210784 614.223007,427.927985 615.047256,427.626975 C617.305633,426.954255 619.531856,426.233331 621.735569,425.475985 C626.159074,423.952725 630.510766,422.29235 634.899972,420.621262 C639.279531,418.95446 643.694461,417.27266 648.241228,415.706552 C652.004477,414.41253 655.853472,413.19028 659.869676,412.131924 C663.129157,411.259959 666.484033,410.194106 669.901075,409.017917 C673.709341,407.706756 677.594779,406.253125 681.525236,404.79735 C685.455692,403.340505 689.426878,401.856879 693.411998,400.485731 C695.668232,399.709104 697.935185,398.973182 700.19785,398.282252 C702.052142,397.718796 703.873207,397.119989 705.678194,396.498688 C713.280792,393.882793 720.372119,390.753789 726.041108,387.044189 C726.838561,386.76996 727.636014,386.480733 728.433467,386.191506 L728.208379,385.478081 L727.986507,384.775367 C728.131206,385.23813 728.285552,385.712676 728.433467,386.191506 L728.705715,386.09724 C731.988777,384.968185 735.377952,384.019093 738.773557,383.086069 C742.169162,382.138048 745.569055,381.187885 748.864979,380.053474 C753.003373,378.628765 756.988493,376.906259 760.603827,374.519604 C760.783897,374.397486 761.133319,374.247516 761.5642,374.099689 C762.670345,373.718339 764.333848,373.32092 765.253491,373.19666 C769.305066,372.667482 772.537751,371.935846 775.12197,371.046741 C778.250686,369.970175 780.436178,368.656872 782,367.186101 L782,0 Z" id="Fill-1" fill="#F1EEE0"></path>
                                <g id="img-scheduled-maintenance-robot" stroke-width="1" fill="none" transform="translate(203.000000, 89.416761)">
                                    <g id="Group-15">
                                        <path d="M198.922505,163.362075 C199.44232,163.210758 200.001816,163.362075 200.521631,163.52932 C202.803262,164.265992 204.98966,165.301317 207.009399,166.595472 C207.989508,167.228612 208.973586,167.969267 209.449752,169.036447 C209.88227,170.016023 209.830685,171.130988 209.775132,172.20215 C209.072787,185.04415 208.370441,197.882169 207.668096,210.728151 C207.624447,211.552429 207.521278,212.488202 206.858613,212.97799 C206.06897,213.559364 204.965851,213.181073 204.065103,212.786853 C195.557596,209.031813 187.042152,205.276772 178.530677,201.517749 C174.443581,199.709914 170.221572,197.814475 167.209819,194.509402 C169.499386,189.388529 174.368188,186.027708 178.792568,182.603175 C185.704918,177.255328 192.029996,171.146916 197.620984,164.425273 C197.986045,163.987251 198.378882,163.525338 198.922505,163.362075" id="Fill-311" fill="#DDC199"></path>
                                        <path d="M239.142699,97.308399 C237.031694,96.8345391 234.916721,96.3566973 232.805717,95.8828374 C220.429357,118.715715 209.47356,142.317122 200.021656,166.515831 C202.204086,167.929447 205.100765,169.347044 207.21177,167.825915 C208.100614,167.192774 208.608525,166.165414 209.080723,165.177874 C219.774628,142.86664 229.805868,120.228881 239.142699,97.308399" id="Fill-312" fill="#AAA08A"></path>
                                        <path d="M200.521631,208.729179 C200.323228,208.729179 200.101017,208.565917 200.124826,208.303104 C201.335082,195.381463 203.608777,182.459822 206.866549,169.900545 C206.953846,169.574019 207.219706,169.426685 207.481597,169.426685 C207.838722,169.426685 208.195847,169.701444 208.084741,170.151412 C204.942043,182.810239 202.54137,195.520833 200.823203,208.450438 C200.799395,208.645557 200.664481,208.729179 200.521631,208.729179" id="Fill-313" fill="#AE997B"></path>
                                        <path d="M185.827928,202.907473 L185.657301,202.680498 C190.672921,191.323789 196.20042,180.174145 202.303287,169.358991 C202.422329,169.151926 202.604859,169.064321 202.791358,169.064321 C203.176259,169.064321 203.56116,169.442613 203.323077,169.880635 C197.46623,180.651987 191.903018,191.546782 186.673123,202.632713 L185.827928,202.907473" id="Fill-314" fill="#AE997B"></path>
                                        <path d="M177.812459,195.481013 C177.439462,195.481013 177.102177,195.035028 177.439462,194.70452 C186.058075,186.409982 193.768003,177.271256 200.458142,167.340109 C200.573216,167.172864 200.731938,167.08526 200.898596,167.057385 C201.144615,167.200738 201.398571,167.340109 201.652526,167.471515 C201.692207,167.602922 201.672367,167.754238 201.569197,167.909537 C194.728272,177.87254 186.911206,187.03914 178.145776,195.345625 C178.042606,195.441193 177.927533,195.481013 177.812459,195.481013" id="Fill-315" fill="#AE997B"></path>
                                        <path d="M201.652526,167.471515 C201.398571,167.340109 201.144615,167.200738 200.898596,167.057385 C200.934309,167.053403 200.970021,167.049421 201.005734,167.049421 C201.295401,167.049421 201.581101,167.22463 201.652526,167.471515" id="Fill-316" fill="#968E7C"></path>
                                        <path d="M117.327415,174.726748 C117.379,174.113517 117.426616,173.492323 117.474233,172.879092 C112.244338,169.291296 103.050357,170.462009 97.4831778,172.273826 C91.5310971,174.209086 91.527129,177.904396 91.6104582,184.088466 C91.6501387,187.596622 91.9794872,191.5428 94.6499874,193.812549 C96.7173434,195.560654 99.6179908,195.799575 102.316267,195.958855 C104.724876,196.102208 107.137453,196.241578 109.546061,196.384931 C111.224548,196.484481 113.093501,196.520319 114.371215,195.421283 C115.660832,194.306319 115.890979,192.414861 116.029861,190.710559 C116.458411,185.382622 116.894897,180.054685 117.327415,174.726748" id="Fill-317" fill="#2F3F47"></path>
                                        <path d="M123.708045,174.726748 C123.660429,174.113517 123.608844,173.492323 123.557259,172.879092 C128.791122,169.291296 137.985103,170.462009 143.548314,172.273826 C149.500395,174.209086 149.508331,177.904396 149.42897,184.088466 C149.381354,187.596622 149.052005,191.5428 146.381505,193.812549 C144.322085,195.560654 141.41747,195.799575 138.723161,195.958855 C136.310584,196.102208 133.901976,196.241578 131.489399,196.384931 C129.810912,196.484481 127.941959,196.520319 126.668214,195.421283 C125.37066,194.306319 125.148449,192.414861 125.009567,190.710559 C124.573081,185.382622 124.140563,180.054685 123.708045,174.726748" id="Fill-318" fill="#2F3F47"></path>
                                        <path d="M79.0277596,161.422833 C77.7143338,161.717502 76.4366204,162.103758 75.222396,162.605492 C74.3137116,162.975819 73.4089954,163.429769 72.7741068,164.174406 C71.8812947,165.217694 71.6432114,166.659184 71.5043296,168.025015 C71.313863,169.848778 71.2305338,171.684488 71.2543422,173.516215 C71.2702144,175.061237 71.3773518,176.673953 72.1788987,177.988018 C73.2899538,179.823728 75.4803195,180.671897 77.5556116,181.193541 C81.491921,182.181081 85.5671122,182.431948 89.6184952,182.631049 C114.097419,183.817689 138.671576,183.02925 163.027491,180.273695 C164.035376,180.162199 165.130559,180.002918 165.821,179.254299 C166.221774,178.816278 166.428113,178.238885 166.602707,177.669457 C167.868516,173.623729 168.705776,168.064835 165.983691,164.301831 C163.634603,161.056488 159.329264,162.908125 156.047684,162.860341 C152.698646,162.816539 149.341673,162.553726 146.00454,162.406391 C139.492963,162.12765 132.981387,161.864837 126.473779,161.63388 C117.291702,161.303373 108.113594,161.02065 98.9275494,160.789693 C92.7215132,160.634394 85.3964859,159.985326 79.0277596,161.422833" id="Fill-319" fill="#516770"></path>
                                        <path d="M131.616377,73.9976793 C148.230618,74.0613915 164.840891,74.439683 181.451164,74.7781544 C181.054359,65.9022414 180.411534,57.0064184 178.530677,48.3296063 C175.237192,33.1262704 167.674082,18.2534419 154.940597,9.37752899 C135.4019,-4.23300056 104.447112,-2.45702158 83.4045229,11.0141374 C74.559731,16.6845277 67.4648508,24.4255662 63.7071038,33.9624937 C59.4295418,44.8413605 58.2867423,56.6798931 57.5804288,68.3591451 C57.4891635,69.9001852 57.4098024,71.4412252 57.3304414,72.9822653 C82.0514166,72.0345456 106.903338,73.9021109 131.616377,73.9976793" id="Fill-320" fill="#849DA6"></path>
                                        <path d="M130.283111,78.4535548 C105.927196,78.4137347 81.4760488,76.6576657 57.1161665,77.5257452 C55.9178142,104.061898 57.0288693,130.693618 60.4532997,157.062526 C60.9215301,160.674214 61.5207062,164.465093 63.8975704,167.320199 C67.5878604,171.7482 73.9962673,169.789048 78.9523665,169.797012 C87.3408323,169.808958 95.9554771,170.163358 104.379655,170.350512 C120.343136,170.70093 136.163766,170.748714 152.03995,168.968753 C159.571316,168.124566 174.800706,170.426171 178.431475,163.644798 C181.39958,158.09785 180.177419,146.900422 180.625809,140.688478 C181.157528,133.381479 181.54243,126.066516 181.776545,118.747571 C182.209063,105.563117 182.15351,92.3667176 181.633695,79.1862457 C164.519479,78.8517564 147.401295,78.4814289 130.283111,78.4535548" id="Fill-321" fill="#849DA6"></path>
                                        <path d="M187.804018,121.379684 C188.105591,121.088997 188.157175,120.631065 188.184952,120.212953 C189.018243,109.194716 189.712652,98.1605504 190.264212,87.1224029 C190.315797,86.1587551 190.299924,85.0398087 189.55393,84.4305603 C189.014275,83.9925386 188.268281,83.9646645 187.573871,83.9567005 C185.133518,83.9248443 182.693165,83.8929882 180.248844,83.8611321 C178.705271,96.3885534 178.082287,109.035435 178.387827,121.654443 C181.101976,121.670371 183.824061,121.690281 186.542177,121.702227 C186.990567,121.706209 187.486574,121.690281 187.804018,121.379684" id="Fill-322" fill="#2F3F47"></path>
                                        <path d="M200.48195,146.780962 C200.803363,145.86908 201.148583,144.913396 201.858865,144.252382 C202.422329,143.722774 203.168323,143.432087 203.894477,143.169273 C206.973686,142.062273 210.148129,141.218086 213.366221,140.648658 C215.870063,142.35296 218.131854,144.415644 220.068264,146.749106 C220.425389,147.187127 220.79045,147.660987 220.873779,148.226433 C220.937268,148.664455 220.83013,149.106459 220.719025,149.536517 C219.457184,154.434396 218.199311,159.336257 216.941438,164.234136 C215.096293,164.488985 213.215435,164.504913 211.366322,164.285903 C212.072636,161.307355 212.778949,158.332789 213.481295,155.354241 C214.155864,152.511082 214.659807,149.062657 212.524994,147.075631 C210.354468,147.645059 208.183943,148.218469 206.013417,148.787898 C205.636452,148.887448 205.243615,148.99098 204.946011,149.241847 C204.58095,149.552445 204.414292,150.030286 204.267474,150.484236 C203.370694,153.287575 202.680252,156.158609 202.200118,159.061498 C200.815267,158.683207 199.426448,158.300933 198.041597,157.91866 C197.938428,154.095924 199.220109,150.388668 200.48195,146.780962" id="Fill-323" fill="#2F3F47"></path>
                                        <path d="M217.330307,142.484367 L217.512837,142.070237 C217.921547,140.282312 218.32232,138.498369 218.727062,136.714426 C215.941488,136.077304 213.108298,135.627336 210.259235,135.384433 C209.810845,136.873707 209.525145,138.410765 209.418008,139.955787 L209.624346,140.907489 L210.175906,141.18623 C212.298815,141.827334 214.473308,142.297212 216.663674,142.595863 L217.330307,142.484367" id="Fill-324" fill="#516770"></path>
                                        <path d="M220.107945,135.523803 C221.786431,132.716482 220.437293,125.270113 220.417453,122.251745 C220.393644,118.154251 220.369836,114.012955 219.429407,110.022975 C218.492947,106.032995 216.552568,102.15053 213.330509,99.6299141 C211.505204,98.2043525 209.342615,97.2685789 207.156217,96.5119959 C200.549407,94.2303009 193.422783,93.4737179 186.482657,94.3099412 C185.927129,94.3736535 185.339857,94.4692218 184.935116,94.8514953 C184.510534,95.265625 184.403396,95.8987655 184.324035,96.4841218 C184.026431,98.7737808 183.570105,101.262541 183.681211,103.576092 C183.875645,107.62182 183.034418,106.506855 185.990618,107.685532 C187.236587,108.179302 189.101572,108.179302 190.962589,108.179302 C192.446641,108.179302 193.926726,108.179302 195.081429,108.438133 C198.101118,109.099147 201.045414,110.154382 203.957966,111.185724 C205.803111,111.834792 207.806978,112.611285 208.767247,114.323552 C209.294998,115.255344 209.437848,116.358362 209.552921,117.42156 C210.267171,123.800749 210.59652,130.215777 210.536999,136.630804 C210.525095,137.72984 218.699285,137.17634 219.798436,135.953861 L220.107945,135.523803" id="Fill-325" fill="#849DA6"></path>
                                        <path d="M204.005582,110.058813 C203.632585,110.058813 203.291332,109.664594 203.493703,109.194716 C204.993628,105.68656 205.989609,102.218224 206.235628,98.3915073 C206.287213,97.6508524 206.890357,97.2884889 207.469693,97.2884889 C208.052997,97.2884889 208.608525,97.6588164 208.529164,98.3915073 C208.10855,102.449181 206.862581,106.423233 204.493653,109.780072 C204.354771,109.975191 204.176208,110.058813 204.005582,110.058813" id="Fill-326" fill="#898787"></path>
                                        <path d="M214.703455,100.860357 C214.540765,100.693112 214.374107,100.52985 214.20348,100.374551 C214.417755,100.482065 214.596318,100.64931 214.703455,100.860357" id="Fill-327" fill="#DFDFDF"></path>
                                        <path d="M207.66016,110.628241 C207.314939,110.624259 207.053047,110.154382 207.346683,109.867676 C209.981471,107.239546 211.616309,104.818481 212.310719,101.111224 C212.425792,100.49003 212.957512,100.207306 213.501135,100.207306 C213.743186,100.207306 213.989206,100.263055 214.20348,100.374551 C214.374107,100.52985 214.540765,100.693112 214.703455,100.860357 C214.786784,101.027602 214.826465,101.226702 214.802657,101.449695 C214.596318,103.492469 213.794771,105.304286 212.600387,106.956823 C211.338546,108.712892 209.648155,109.445583 207.878403,110.560547 C207.806978,110.604349 207.731585,110.628241 207.66016,110.628241" id="Fill-328" fill="#898787"></path>
                                        <path d="M53.2314418,84.1876574 C52.9338377,84.4783445 52.882253,84.9362763 52.8505086,85.354388 C52.0132493,96.3766073 51.3188398,107.410773 50.7712484,118.444938 C50.7236318,119.408586 50.739504,120.527532 51.4815301,121.136781 C52.0172173,121.574802 52.7711475,121.602677 53.4576208,121.614623 C55.90591,121.646479 58.3462631,121.678335 60.7866162,121.702227 C62.3341572,109.178788 62.9571417,96.535888 62.6516015,83.9168803 C59.9295166,83.8969702 57.2153678,83.8770602 54.4932829,83.8611321 C54.0488609,83.8611321 53.5528541,83.8730781 53.2314418,84.1876574" id="Fill-329" fill="#2F3F47"></path>
                                        <path d="M22.4750567,70.6089839 C22.5901303,71.5766138 22.7012358,72.5800817 22.3599832,73.4919633 C22.0901555,74.2206722 21.5505002,74.8060285 21.018781,75.3674927 C18.7490542,77.73281 16.2809248,79.9030085 13.646137,81.8502142 C10.6502564,81.4440486 7.70992854,80.6078253 4.94816309,79.3773824 C4.42834805,79.1424435 3.89266078,78.8796305 3.56728037,78.4137347 C3.31729298,78.0513712 3.21809164,77.6014035 3.1268264,77.1713458 C2.08322825,72.2217003 1.0396301,67.2680728 2.27373675e-13,62.3144453 C1.53960488,61.2671752 3.21412358,60.4150238 4.97197142,59.7858654 C5.65447667,62.7683951 6.34491803,65.7509248 7.03139134,68.7334546 C7.68612022,71.5805958 8.76543085,74.8936328 11.5549727,75.7218921 C13.2493317,74.2366002 14.9397226,72.7592724 16.6340815,71.2779626 L17.3840437,70.3979371 C17.5705422,69.9559334 17.5110214,69.4541994 17.4395965,68.9803395 C17.0070786,66.0694861 16.3563178,63.1904888 15.4952501,60.3752037 C16.9039092,60.1004446 18.3165364,59.8217035 19.7251955,59.5469444 C21.5147877,62.9276757 22.0107945,66.814123 22.4750567,70.6089839" id="Fill-330" fill="#2F3F47"></path>
                                        <path d="M9.2852459,81.9736567 L9.30111812,82.4276065 C9.73363598,84.2075675 10.1621858,85.9875285 10.5907356,87.7674895 C13.3723413,87.0945288 16.1023623,86.2304314 18.7609584,85.1831613 C18.5070029,83.6500853 18.0784531,82.1448833 17.4911812,80.7073757 L16.892005,79.9507927 L16.2690206,79.9468107 C14.086591,80.3171381 11.9319378,80.8666563 9.82886927,81.5794371 L9.2852459,81.9736567" id="Fill-331" fill="#516770"></path>
                                        <path d="M9.87648592,89.4479001 C9.62253047,92.7091709 14.1262715,98.7817448 15.4793779,101.477569 C17.3126187,105.137042 19.173636,108.836334 21.7806473,111.990091 C24.3876587,115.147829 27.8438335,117.760031 31.8475998,118.576345 C34.1133586,119.046223 36.4624464,118.918798 38.7599496,118.620147 C45.6921396,117.712247 52.4140227,115.219505 58.2549979,111.372878 C58.7271963,111.062281 59.2112989,110.719828 59.3977974,110.194202 C59.6001681,109.632738 59.4136696,109.019507 59.223203,108.458043 C58.481177,106.275898 57.7827995,103.838905 56.6598403,101.820023 C54.6956536,98.2839928 55.9416225,98.9051873 52.7751156,99.1680003 C50.3665069,99.3671011 46.8746196,101.907627 44.2993527,102.552714 C41.2955359,103.301333 38.1964859,103.67166 35.1252123,104.049952 C33.184834,104.288872 31.050021,104.483991 29.4310551,103.384955 C28.542211,102.783671 27.9311307,101.859843 27.3478268,100.955925 C23.8876839,95.5642761 20.7489533,89.9615801 17.9633796,84.1836754 C17.4872131,83.1961355 10.4121732,87.3414138 9.9637831,88.930238 L9.87648592,89.4479001" id="Fill-332" fill="#849DA6"></path>
                                        <path d="M37.5854056,118.198053 C37.2163766,118.198053 36.8671879,118.006916 36.6965616,117.545003 C35.2759983,113.72625 34.6331736,109.604863 35.2680622,105.543207 C35.323615,105.188808 35.5736024,105.021563 35.8315259,105.021563 C36.1172257,105.021563 36.4068937,105.23261 36.4267339,105.622848 C36.6330727,109.433637 37.2758974,112.985595 38.7480454,116.525607 C39.1289786,117.44147 38.3234636,118.198053 37.5854056,118.198053" id="Fill-333" fill="#898787"></path>
                                        <path d="M30.7444809,118.301586 C30.4984615,118.301586 30.2643464,118.233891 30.0699117,118.086557 C30.2921227,118.166197 30.5183018,118.237873 30.7444809,118.301586" id="Fill-334" fill="#DFDFDF"></path>
                                        <path d="M30.756385,118.301586 C30.752417,118.301586 30.7484489,118.301586 30.7444809,118.301586 C30.5183018,118.237873 30.2921227,118.166197 30.0699117,118.086557 C29.9230937,117.97506 29.8000841,117.81578 29.720723,117.604733 C29.0064733,115.685401 28.9231442,113.70634 29.2604288,111.69144 C29.6135855,109.553097 30.8040017,108.139482 31.8912484,106.355539 C31.9745776,106.216168 32.1015553,106.156438 32.2325011,106.156438 C32.5062968,106.156438 32.7840605,106.419251 32.6769231,106.737812 C31.4746028,110.265878 31.0897016,113.168767 32.1055233,116.792402 C32.3515427,117.668445 31.5222194,118.301586 30.756385,118.301586" id="Fill-335" fill="#898787"></path>
                                        <path d="M68.4528962,47.9513148 C68.4767045,49.4684628 68.5719378,51.0254309 69.2107945,52.4032083 C70.8178562,55.871544 75.1112905,56.9785443 78.8769735,57.6077028 C100.403665,61.215409 122.4343,62.4538159 144.095906,59.7221531 C146.933064,59.3637717 149.805935,58.92575 152.412947,57.7430913 C155.019958,56.5644147 157.369046,54.5335867 158.337251,51.8377621 C158.944363,50.1294774 158.976108,48.2778401 158.995948,46.4660229 C159.019756,44.6183677 159.043565,42.7667304 159.067373,40.9190751 C159.075309,40.0868338 159.079277,39.2307005 158.765801,38.4581894 C158.412644,37.6060381 157.702362,36.9529875 156.940496,36.4313435 C154.083497,34.4682097 150.472568,34.0580621 147.028298,33.7076447 C124.088979,31.3781656 100.887768,29.3791937 78.0436822,32.4811839 C77.0992854,32.6086084 76.0874317,32.7758531 75.4088945,33.4408497 C75.0676419,33.775339 74.8335267,34.2133607 74.4565616,34.5040479 C73.8018327,35.0217099 72.8891803,34.9898538 72.0916015,35.2486848 C69.8536192,35.9694296 69.0758806,38.7130384 68.8020849,41.0584457 C68.5322573,43.3481047 68.4171837,45.6497097 68.4528962,47.9513148" id="Fill-336" fill="#2F3F47"></path>
                                        <g id="Group" transform="translate(87.058989, 42.344637)" fill="#54B45E">
                                            <path d="M5.33714335,11.7907484 C5.0236671,11.7907484 4.71019085,11.7628743 4.40068265,11.7031441 C2.17857252,11.2850324 0.333427502,9.32189868 0.0437595747,7.06807781 C-0.0951223084,5.96904149 0.103280382,4.83814904 0.543734354,3.82273504 C1.27782431,2.11445032 2.69838757,0.708798789 4.40465071,-1.17976739e-11 C6.35693318,0.362363426 8.67824465,0.179190705 9.94802187,1.70032069 C10.5551341,2.43699359 10.765441,3.42055146 10.8567062,4.37225321 C11.0114603,5.94116738 10.8963867,7.59370388 10.1464246,8.97944533 C9.20599581,10.6956941 7.27355361,11.7907484 5.33714335,11.7907484" id="Fill-337"></path>
                                            <path d="M43.0812711,11.7907484 C42.7717629,11.7907484 42.4582867,11.7628743 42.1487785,11.7031441 C39.9266684,11.2850324 38.0815233,9.32189868 37.7918554,7.06807781 C37.6490055,5.96904149 37.8513762,4.83814904 38.2918302,3.82273504 C39.0259201,2.11445032 40.4464834,0.708798789 42.1527465,-1.17976739e-11 C44.105029,0.362363426 46.4223724,0.179190705 47.6961177,1.70032069 C48.307198,2.43699359 48.5135368,3.42055146 48.6087701,4.37225321 C48.7635242,5.94116738 48.6444826,7.59370388 47.8905523,8.97944533 C46.9580597,10.6956941 45.0216494,11.7907484 43.0812711,11.7907484" id="Fill-338"></path>
                                        </g>
                                    </g>
                                </g>
                            </g>
                        </g>
                    </g>
                </g>
            </g>
        </g>
    </g>
</svg>