<?xml version="1.0" encoding="UTF-8"?>
<svg width="782px" height="545px" viewBox="0 0 782 545" version="1.1" xmlns="http://www.w3.org/2000/svg" xmlns:xlink="http://www.w3.org/1999/xlink">
    <!-- Generator: Sketch 63.1 (92452) - https://sketch.com -->
    <title>img-404</title>
    <desc>Created with Sketch.</desc>
    <g id="a_initial_0819" stroke="none" stroke-width="1" fill="none" fill-rule="evenodd">
        <g id="a_27_404_error" transform="translate(-584.000000, -171.000000)">
            <g id="img-404" transform="translate(584.000000, 169.253761)">
                <path d="M782,2.58323903 C774.395259,5.19591987 766.790517,7.80860071 759.184704,10.4212816 C746.279689,14.0408997 733.243908,17.7976326 720.418209,22.209946 C718.264872,22.9512232 716.113679,23.7139247 713.968916,24.4959079 L713.188613,24.7733512 C710.690142,25.6335327 708.152013,26.2719738 705.626746,26.90613 C703.10791,27.5413575 700.600864,28.1680152 698.161344,29.0067726 C695.921188,29.7780437 693.738911,30.7271356 691.65846,32.0179435 L582.508181,67.1461283 C579.844646,67.9366812 576.84991,68.8996988 573.825163,69.9398436 C571.690048,70.6746936 569.566722,71.4416798 567.554869,72.1968828 L522.079695,88.5489012 C516.987359,89.8707742 512.007566,91.4026043 507.102803,93.0897598 C495.819489,96.9728956 484.907033,101.594095 473.834873,105.898216 L453.044292,113.375261 L448.171684,115.039921 L435.776867,119.273342 C434.264494,119.225138 432.381262,119.603275 430.618076,120.20958 C429.625548,120.551296 428.663031,120.967996 427.831279,121.422189 C424.92765,123.005437 421.882538,124.410865 418.749535,125.707029 L401.289178,131.987532 C399.069386,132.725596 396.849595,133.464731 394.645881,134.222076 C393.770184,134.523086 392.901989,134.827309 392.039154,135.133675 C383.467608,138.17484 374.730998,140.929992 366.737177,144.674942 L365.576369,145.014515 C363.244034,145.663668 360.858107,146.157496 358.578292,146.942693 C357.114152,147.446162 355.687526,148.072819 354.333785,148.942642 C353.752845,149.216871 353.123672,149.464321 352.476278,149.687133 C351.210428,150.122044 349.851329,150.473401 348.513666,150.816188 C347.180291,151.155761 345.874783,151.486765 344.7054,151.88954 C343.353803,152.354445 342.191923,152.909332 341.386968,153.680603 C339.752404,155.247783 346.246714,153.140713 347.605813,153.655965 C346.795498,153.938765 345.98304,154.230134 345.177012,154.523645 L345.331358,154.50115 L345.486775,154.479726 L345.249898,154.515075 L345.177012,154.523645 C340.067526,156.077971 334.924813,157.501609 329.879638,159.23804 C326.660887,160.345671 323.48501,161.578633 320.391665,163.049404 C318.899656,163.547517 317.415151,164.048843 315.932789,164.558739 C305.125374,168.279051 294.547335,172.341079 283.91999,176.420246 C273.278711,180.504769 262.588128,184.607503 251.544907,188.408155 L250.660635,188.711308 C252.224457,189.364746 253.477444,189.896066 254.740078,190.424172 C253.104442,190.990842 251.45916,191.560726 249.806374,192.132752 L249.213644,192.149891 C247.629457,192.233446 246.061347,192.597657 244.520034,193.127906 C242.56606,193.799555 240.666751,194.733649 238.839255,195.696667 C235.25822,197.580925 231.492828,199.263796 227.317991,200.700288 C226.641657,200.932741 225.954604,201.158766 225.24933,201.381578 C221.101289,201.629027 216.910375,202.461357 211.833044,204.208501 C210.655087,204.614489 209.426752,205.068682 208.137322,205.578578 C199.787649,208.882189 191.365089,211.942636 182.906087,214.854184 C164.604332,221.151827 146.091422,226.760682 127.658901,232.630912 C110.779484,238.009456 94.1701712,241.609793 77.2886101,247.418964 C75.6379685,247.986705 73.9937581,248.570514 72.3345418,249.18646 C68.6699032,249.38142 64.178872,250.711863 59.8003846,251.972677 L58.7446171,252.305823 C57.0628921,252.884277 55.5205069,253.661975 55.4583399,254.350763 C55.4122506,254.822095 56.3458277,255.397335 56.9492765,255.218443 C65.2625075,252.753589 68.1286214,255.051334 76.2789319,252.658251 C85.1548816,251.647029 94.759686,249.897743 104.680685,247.771392 C119.754043,244.539552 135.545538,239.793021 150.991898,235.774913 C162.830428,232.502367 174.66467,229.230892 186.498912,225.959417 C187.389616,225.956203 188.91378,225.728035 189.041329,225.996909 C189.28571,226.48431 188.865546,226.796032 188.204218,227.024199 C187.342455,227.319853 186.047666,227.478392 185.311308,227.693706 C154.090602,236.762568 122.887046,247.453243 91.6920652,256.979512 C81.4387945,259.790367 71.2112481,262.765116 60.9611929,266.29261 C56.0210586,267.99262 51.0734214,269.824389 46.1182813,271.822196 L46.5663125,271.665799 C50.370291,270.356781 53.5740361,269.856526 56.6630938,269.489101 L58.3405315,269.295212 C61.9590807,268.892437 65.535828,268.500374 69.8832319,267.003894 C70.740708,266.709311 71.6228366,266.372951 72.5489108,265.984102 C98.85735,259.070513 125.161502,252.157996 151.471013,245.245479 C151.87617,245.625759 154.144195,245.657895 151.264147,246.648764 C150.87078,246.784808 150.379875,246.935848 149.780713,247.109384 C146.313294,248.113108 142.821223,249.178962 139.345229,250.215893 C136.026796,250.651875 132.70622,251.625605 129.365279,252.776084 C127.823965,253.306333 126.271933,253.876217 124.732764,254.442887 C123.178588,255.012771 121.635131,255.580512 120.085243,256.113974 C118.969452,256.498539 117.857949,256.86275 116.735727,257.195896 C115.918981,257.475482 115.09366,257.758281 114.26834,258.042152 C93.348066,263.346783 72.3420447,269.239509 51.1398758,276.535519 C49.4302828,277.123613 47.7239053,277.720277 46.016456,278.325511 C42.3561048,279.624888 37.6635667,281.14922 37.9861921,282.644629 C38.3206078,284.173245 43.0110022,282.408963 46.681,281.329183 C73.2916995,273.512565 99.986003,265.463494 125.920368,259.645753 C132.823051,257.544039 139.643202,255.644784 146.25863,254.26828 C145.396866,255.213087 143.575802,255.973646 141.550014,256.689214 C137.019325,258.168555 132.421109,259.863209 127.975095,261.088673 C105.288421,267.32847 82.6221115,273.10122 59.9332934,280.908198 C52.8977018,283.329132 45.8492481,285.951454 38.8072255,288.840507 L22.8860376,294.318674 C25.7800195,295.56342 34.4051575,292.135548 35.0686296,294.133355 C32.2046594,296.315409 25.7703729,299.06949 28.843353,300.29174 C26.6964471,302.184568 20.4304404,303.924213 19.6662148,305.856675 L16.9255068,307.278171 L17.4978721,307.364939 C29.2613726,306.080558 43.0163614,301.396157 55.8988683,298.209308 C60.517449,297.824744 66.0588884,295.877284 71.2155354,294.493281 C86.197787,290.470888 101.288295,286.2139 114.931812,284.311431 C113.718483,284.791333 112.511585,285.234814 111.301472,285.650444 C104.986161,287.823928 98.7072917,289.248638 92.4037704,291.262512 C72.6164371,296.496443 52.7797989,302.490934 32.8745626,309.341321 L32.0717506,309.617693 C27.632168,310.537862 23.436966,311.679772 19.4025409,313.06806 C12.6199048,315.402226 6.28315627,318.438035 0,322.309387 C8.20283093,320.68222 16.8172504,318.636209 10.8127739,324.166865 L31.8112922,316.940484 C48.7764572,312.433904 65.7426941,307.927324 82.7100028,303.421815 C89.7798934,301.057655 92.6942404,302.465225 98.5422275,301.204411 C90.3619054,307.544902 98.0288137,305.702421 107.520003,302.919418 C116.736799,299.909318 125.65991,298.345352 134.912077,295.161716 C135.859588,294.836068 136.821033,294.490067 137.779263,294.123714 L137.728886,294.373306 C137.356956,295.67911 135.084644,296.736394 132.532581,297.613715 C131.25387,298.053983 129.904417,298.448188 128.694303,298.808114 C120.793733,301.147637 112.974622,303.649983 105.186596,306.33015 C101.219697,307.694871 97.2581571,309.105655 93.2955455,310.569999 L92.9021784,310.708185 C92.3491063,310.897789 91.7756691,311.072396 91.2000883,311.244861 C90.6352259,311.415183 90.0703635,311.585506 89.5440875,311.76654 C88.4433025,312.145748 87.5000788,312.574232 86.9534378,313.194463 C85.8151382,314.483128 86.910564,314.99838 89.0220989,315.105501 C92.0597081,315.269396 96.4231897,314.305307 100.282904,313.025212 C119.110936,306.773631 137.048265,303.214 155.614766,297.642638 C155.701586,297.86545 155.774471,298.094689 155.844141,298.324999 C154.161344,299.076988 152.418524,300.05286 150.777529,300.617388 L150.242678,300.788781 C132.044891,306.059134 113.93178,311.917581 95.8615428,318.135954 C91.7992497,319.532811 87.7380284,320.948951 83.6789509,322.381158 C79.9253491,323.67518 75.9445163,325.085963 77.0345828,326.409979 C78.1803852,327.806836 82.9726049,326.366059 87.3843195,325.117028 C94.5903345,325.162019 105.481353,321.519906 113.527695,320.650083 C110.598342,321.950532 107.630403,323.079587 104.634595,324.111162 C100.381514,325.574435 96.0630497,326.842747 91.7027836,328.127128 C87.332871,329.41258 82.9190126,330.7141 78.4719271,332.244859 C76.6722991,332.864018 74.8651682,333.52067 73.0516062,334.231953 C79.6648908,333.559233 87.1624476,331.431811 91.1089814,332.438748 C84.3617162,335.211039 73.060181,338.613201 75.2660383,340.216803 C77.3111188,341.71114 75.7569433,343.367231 74.1223795,345.525719 C73.8512027,345.883503 77.3829324,345.582493 79.4891082,345.262201 C83.1280224,344.713742 87.0198922,343.913548 90.8110085,343.214048 C89.3447243,344.435227 87.1495854,345.275056 84.8601242,346.062395 L83.830081,346.414823 L82.8225466,346.756539 L82.0175909,347.038267 C69.3601715,351.542704 63.2667318,355.976442 64.8702122,359.424666 C65.2925192,360.325554 67.3686832,359.891714 69.9046688,359.185787 C90.6116453,353.422678 111.322909,347.646714 132.032029,341.875035 C145.224299,339.368404 158.878535,335.996236 172.980801,331.800307 C175.035529,332.023118 177.895211,330.89085 180.620914,329.985677 C182.475206,330.142074 182.698149,330.861927 181.411935,332.106673 C173.110495,336.546838 167.8681,340.553162 168.770594,343.686451 C168.824186,343.93283 168.891712,344.171709 168.968885,344.409518 C153.135588,354.310711 150.974749,357.00159 157.344724,358.857996 C154.372498,362.256945 153.792629,365.137429 151.479588,368.297498 C148.615617,372.202058 156.641594,371.771431 154.583651,375.071829 L153.811923,375.332133 C148.439835,377.181041 145.911352,378.672165 149.52347,379.415585 C153.116295,380.157933 158.221494,379.872991 164.251694,378.964605 C172.059015,377.3128 179.192144,376.525461 187.560039,374.174155 C190.362914,375.038621 196.51209,372.578052 200.720154,372.043519 C200.536868,373.117942 194.120803,374.762249 195.98367,375.236795 C197.954793,375.734908 202.584093,374.453741 206.673182,373.207924 L206.686044,373.200425 L206.449166,373.587132 C203.080357,379.468074 221.085212,370.720574 223.83771,372.764443 C222.566502,373.152221 221.361748,373.54107 220.237382,373.928848 C209.366729,377.669513 205.367674,381.3684 205.170455,384.960167 C202.124271,390.792905 197.63324,396.996281 197.243088,402.147729 C197.317045,402.390894 197.394218,402.629774 197.467104,402.871867 C188.018789,406.723938 188.994168,409.243423 186.771161,412.169969 C181.225434,416.044535 171.474859,421.080292 172.457741,423.403746 C173.927241,426.872324 170.891775,430.453378 161.659973,435.583402 C159.477696,436.798154 155.43684,439.155887 157.886006,438.84845 C168.68699,437.494441 160.823934,442.766936 161.94294,444.810804 C160.119731,446.404764 167.56048,445.541369 160.453075,448.536472 C157.771319,449.506988 155.10564,450.457151 152.459254,451.368751 C138.205857,456.27275 124.44015,460.131248 112.088207,460.929299 C111.036726,460.996785 109.805176,461.251733 108.617572,461.659864 C107.820119,461.935165 107.045175,462.27581 106.347404,462.677513 C104.569213,463.697305 104.317329,464.587481 105.360235,464.802794 C113.975726,466.599213 113.619873,473.57386 136.364427,467.249437 C137.187604,466.976279 137.996848,466.70312 138.822168,466.421392 C147.847104,464.887419 157.051039,463.077075 167.129599,459.891297 L167.125311,459.89451 C167.56584,460.321923 169.676303,460.482604 166.321427,461.712353 C158.921409,464.428941 151.509599,467.289072 144.092431,469.839622 C135.832792,472.682613 127.559219,475.147467 119.243845,476.623595 C118.489266,476.755353 117.675735,476.941744 116.900791,477.091713 C114.668138,477.529838 111.949939,478.012954 109.774093,478.761729 C108.503956,479.198783 107.422465,479.722605 106.745058,480.376043 C104.620661,482.408128 109.809464,481.324063 112.940323,480.874155 C117.310236,480.251782 121.792693,479.545855 126.376974,478.707098 C133.561552,477.395937 140.875824,475.943376 151.430283,473.917718 C150.683207,474.193019 149.946849,474.455466 149.22121,474.705058 C141.070899,477.510556 134.295766,478.70067 127.805744,479.791162 C121.311434,480.883796 115.092589,481.882164 108.030201,484.31381 C106.175909,484.95118 104.263737,485.687101 102.271177,486.552639 C110.521169,486.965054 122.951357,482.850537 133.562624,481.782541 C117.883673,487.935571 128.647142,487.666697 127.66426,490.612524 C114.708868,492.378949 99.1263832,499.857065 87.7562498,499.688885 C100.745941,500.495506 118.295262,497.886039 132.834841,497.39114 C125.808896,501.211074 117.994073,504.520042 108.542543,507.772235 C107.064468,508.281059 105.541376,508.789884 103.972195,509.300851 C108.896252,508.799525 109.491126,509.791465 107.249898,511.806411 L107.244538,511.807482 C96.8412093,516.638639 94.6621481,519.7655 99.1446045,521.515857 L99.5744144,521.673325 L103.609911,521.06702 C138.649601,515.623132 177.07525,505.93511 213.751647,498.455923 C215.47303,498.124919 217.20942,497.806769 218.937234,497.477908 L219.15589,497.657871 C220.790454,498.723725 225.392957,497.215462 229.5828,496.263156 C235.492954,494.902719 241.963683,492.252546 247.474039,491.660167 C241.702153,493.747955 236.316131,496.377775 230.490653,498.382009 C229.008291,498.892976 227.494846,499.370736 225.931024,499.776724 C223.968475,500.293047 221.815138,500.784733 220.051953,501.391038 C218.138709,502.049832 216.673497,502.844669 216.414111,503.976938 C215.886763,506.139711 222.14741,503.837681 225.519435,502.956075 C234.367517,500.629407 243.4021,497.841048 252.314492,495.407259 C254.948016,494.675623 258.850604,493.816513 258.323256,495.112677 C258.037073,495.812177 257.202106,496.276011 256.150626,496.637008 C254.722928,497.128694 252.878283,497.427561 251.391633,497.821766 C250.05933,498.177408 248.694871,498.500913 247.448315,498.929397 C246.251064,499.341813 245.167429,499.846353 244.291731,500.557636 C248.079632,501.188579 255.539674,496.746272 258.679108,497.748924 C257.57618,498.552331 256.1935,499.116859 254.74758,499.614972 C254.271681,499.778867 253.786135,499.930979 253.305949,500.095945 C252.821475,500.249128 252.334857,500.398026 251.863245,500.56085 L250.72173,500.985049 C249.267236,500.913278 247.395795,501.249638 245.71407,501.829162 C244.730116,502.167665 243.799754,502.58865 243.056965,503.079264 C241.210176,504.315441 244.247785,503.697352 246.006683,503.413482 C251.47095,503.864461 260.436935,500.542639 267.145613,499.658891 C266.692223,499.960972 266.284922,500.279122 265.754358,500.579061 L264.611771,501.028969 L244.746193,507.86543 L244.207055,507.948984 C242.93156,508.132161 241.623908,508.222143 240.440591,508.629203 L240.235869,508.698831 C239.030043,509.114461 237.688093,509.532233 236.333281,509.970357 C234.96775,510.407411 233.572208,510.845536 232.257054,511.297586 C228.585984,512.561614 225.520507,513.89527 225.279342,515.24071 C225.023171,516.720051 231.254878,516.907512 239.487721,514.238057 C246.753759,511.868541 254.074462,509.906085 261.372655,507.760451 C273.122222,504.243669 284.868573,500.74724 296.61278,497.247598 C294.150752,498.79871 291.313578,499.952403 288.35207,500.955055 C286.965102,501.432815 285.559913,501.887008 284.154724,502.327275 C282.749535,502.782539 281.338987,503.221735 279.952019,503.698424 C278.959491,504.041211 277.970177,504.408636 277.010876,504.786773 C270.705211,506.147209 264.539958,508.019684 258.437943,510.119256 C250.649916,512.799423 242.961571,515.858798 235.226065,518.73821 C251.233,514.666541 266.833706,511.5129 283.239368,505.867624 C283.970367,505.615889 284.708868,505.347016 285.447369,505.093139 C295.592384,502.556514 306.541282,498.084213 316.099997,496.993721 C318.03039,497.005504 320.13335,496.413125 322.2824,495.675062 C322.961949,495.440467 323.646859,495.190875 324.331768,494.940212 C325.011317,494.69062 325.696226,494.453883 326.380064,494.219288 C327.114278,493.966482 327.853851,493.728673 328.583777,493.520859 C328.687746,493.73403 328.738123,493.952556 328.737051,494.201077 C323.839791,497.131907 317.996091,499.538916 312.079506,501.575286 C308.651745,502.753617 305.19826,503.810901 301.902336,504.769633 C295.320135,506.69674 288.861196,508.802739 282.440844,511.010502 C272.395511,514.468368 262.448788,518.154401 252.344504,521.692607 C269.785568,518.329008 287.163393,514.811155 306.032155,508.453524 C304.447968,509.685416 302.35787,510.552024 300.145582,511.313655 C299.398506,511.570745 298.640711,511.816052 297.879701,512.063501 C297.117619,512.310951 296.360897,512.5584 295.618108,512.81442 C295.024306,513.017949 294.429432,513.22255 293.863497,513.446433 L278.989502,518.564674 C276.128748,519.651952 273.254059,520.684598 270.375083,521.674396 C264.62249,523.655063 258.824879,525.488975 253.018694,527.312174 C247.210365,529.13323 241.399893,530.973569 235.623719,532.960663 C230.664292,534.667101 225.723086,536.486015 220.840831,538.532026 C242.7054,534.07365 265.672898,525.010144 287.661801,519.584466 C288.676839,519.293097 289.692948,518.973876 290.69941,518.627875 C292.082091,518.151187 293.455124,517.633793 294.833517,517.130324 C296.207623,516.615072 297.589231,516.10839 298.957977,515.638129 C301.92806,514.616194 304.870275,513.766725 307.779263,513.467858 C315.539422,512.013155 309.327007,515.532079 308.07938,517.325284 L313.079537,515.60385 C317.431229,514.032385 317.434444,512.023867 320.90615,510.828396 L320.956527,510.811257 C330.353394,507.577275 321.06264,512.710512 323.913748,512.463063 C324.528987,512.410573 325.49472,512.078498 326.265376,511.930671 C332.317014,510.670929 338.278617,509.132671 344.076227,507.138078 C349.153558,505.389864 354.108698,503.289221 358.89663,500.716175 C361.409035,499.42751 364.006116,498.136702 366.364175,497.325796 C368.952681,496.43455 371.250717,496.128184 372.830617,497.050495 C373.95927,497.705004 375.413764,497.511115 376.969011,496.976582 C378.469594,496.459187 380.060212,495.618288 381.521137,494.941283 C384.934964,493.354821 388.380946,492.009382 391.852653,490.813911 C397.170077,488.984285 402.550739,487.498517 407.963557,486.003108 C413.380663,484.505557 418.820277,483.000507 424.273825,481.123747 C425.701523,480.632062 427.13458,480.110383 428.570852,479.555496 C430.82923,478.69103 433.521705,477.676594 436.508937,476.649304 C442.071814,474.735052 448.676523,472.783307 455.488099,471.759231 C442.780303,477.218116 430.283661,480.066463 421.164402,485.404302 C413.197377,486.60727 405.572271,488.599721 398.156174,491.151343 C388.753948,494.387468 379.70436,498.513768 370.81662,503.008564 C368.01696,502.505096 364.246209,502.821103 359.514013,504.448271 C358.725135,504.720358 357.908389,505.03208 357.064847,505.380223 C353.479525,506.862778 349.843826,508.202861 346.185618,509.462604 C341.819993,510.96444 337.422212,512.34523 333.034078,513.738874 C328.641657,515.132518 324.249236,516.512236 319.897544,518.010859 C317.57164,518.811052 315.272532,519.644454 312.978784,520.522846 C311.061253,520.462858 308.61423,521.21699 306.088963,522.085741 L276.290596,532.340433 C265.619306,536.01254 254.948016,539.684648 244.286372,543.384606 L243.570379,543.630985 L242.906907,543.843084 C240.653889,544.617569 238.355853,545.510958 238.395511,546.583239 C239.891807,546.420415 241.51458,545.937299 243.192018,545.359917 C243.726869,545.175669 244.275653,544.986065 244.818007,544.782535 C245.362504,544.595074 245.907002,544.393686 246.460074,544.204082 C248.568393,543.478873 250.702437,542.846859 252.729296,542.75045 C250.267268,544.141952 248.466568,545.172456 246.37647,546.360427 C248.352952,545.929801 250.142934,545.416691 251.789288,544.850021 C258.542984,542.525496 262.969705,539.302226 268.53794,536.607062 C273.156521,536.266417 279.463258,533.009939 283.930708,532.923171 C280.852369,534.305032 274.727846,536.280343 280.532959,536.131444 C282.590902,536.084311 289.045553,534.155062 295.841052,531.81554 C303.756628,529.091453 312.121308,525.819978 314.496517,524.296718 C318.896441,521.477294 324.097034,519.056359 329.268686,517.27708 C337.111377,514.577631 344.875824,513.358594 349.642319,514.50586 C351.394786,514.927917 353.339113,514.508002 355.297374,513.834211 C356.281328,513.495709 357.265282,513.100433 358.235302,512.705156 C359.192459,512.304524 360.144258,511.916746 361.051039,511.605024 L361.427256,511.475407 C362.746698,511.021214 363.875351,510.32707 365.109044,509.59222 C366.338451,508.863798 367.670754,508.09574 369.402856,507.499076 L369.670817,507.406952 C371.373979,507.232345 372.703067,506.936691 373.772769,506.568195 C377.44491,505.305238 378.212351,503.162819 381.453611,501.767032 C385.789225,499.3386 390.045522,497.372929 394.061726,495.989998 C399.039375,494.277133 403.650452,493.470512 407.542322,493.758667 C413.876927,494.247139 421.020775,492.156137 429.683427,489.231735 C431.797106,488.521522 433.918288,487.792028 436.040541,487.062535 C438.10813,486.351251 440.184294,485.636754 442.24974,484.90726 L448.40749,482.789478 C458.415308,479.344468 468.43063,476.002293 478.467388,473.267494 C482.401059,472.208067 486.132152,471.202201 489.800006,469.941387 C492.438889,469.033001 495.03597,467.991785 497.63841,466.698835 C499.546294,465.748672 501.392012,464.879921 503.015857,464.320749 C505.336402,463.521627 507.221777,463.357732 508.276473,464.564985 C509.145739,465.553712 512.839318,465.369464 516.859809,463.985461 C517.581161,463.738011 518.305728,463.443428 519.031367,463.120994 C522.305854,461.658793 525.524605,460.419403 528.756218,459.306416 C532.709183,457.945979 536.680369,456.783717 540.791967,455.70608 C541.480092,455.526116 542.160714,455.324729 542.818827,455.098704 C544.903565,454.380993 546.72999,453.442613 547.588538,452.29749 C548.876895,450.621046 551.18565,449.300245 554.38618,448.199041 C555.841745,447.698786 557.481668,447.236023 559.29523,446.81718 C560.024085,446.639359 560.704707,446.448684 561.321018,446.236584 C563.972763,445.323914 565.614829,444.070598 566.671669,442.855846 L569.116547,442.014946 C572.145582,443.906703 565.722014,446.336207 558.916869,448.678943 C560.203083,448.777494 560.607169,448.962814 561.164528,448.827841 C565.392957,447.723424 569.54207,446.415477 573.653668,445.000408 C578.712777,443.258621 583.717222,441.34544 588.718451,439.435473 C593.718609,437.537289 598.714479,435.628393 603.77466,433.886606 C606.68472,432.886096 609.621576,431.932719 612.577725,431.077894 C613.401973,430.794023 614.223007,430.511224 615.047256,430.210214 C617.305633,429.537494 619.531856,428.81657 621.735569,428.059224 C626.159074,426.535964 630.510766,424.875589 634.899972,423.204501 C639.279531,421.537699 643.694461,419.855899 648.241228,418.289791 C652.004477,416.995769 655.853472,415.773519 659.869676,414.715163 C663.129157,413.843198 666.484033,412.777345 669.901075,411.601156 C673.709341,410.289995 677.594779,408.836364 681.525236,407.380589 C685.455692,405.923744 689.426878,404.440118 693.411998,403.06897 C695.668232,402.292343 697.935185,401.556421 700.19785,400.865491 C702.052142,400.302035 703.873207,399.703228 705.678194,399.081927 C713.280792,396.466032 720.372119,393.337028 726.041108,389.627428 C726.838561,389.353199 727.636014,389.063972 728.433467,388.774745 L728.208379,388.06132 L727.986507,387.358606 C728.131206,387.821369 728.285552,388.295915 728.433467,388.774745 L728.705715,388.680479 C731.988777,387.551424 735.377952,386.602332 738.773557,385.669308 C742.169162,384.721287 745.569055,383.771124 748.864979,382.636713 C753.003373,381.212004 756.988493,379.489498 760.603827,377.102843 C760.783897,376.980725 761.133319,376.830755 761.5642,376.682928 C762.670345,376.301578 764.333848,375.904159 765.253491,375.779899 C769.305066,375.250721 772.537751,374.519085 775.12197,373.62998 C778.250686,372.553415 780.436178,371.240111 782,369.76934 L782,2.58323903 Z" id="Fill-1" fill="#E6F4FA"></path>
                <g id="user-pets" transform="translate(210.000000, 0.000000)">
                    <g id="Group-5">
                        <text id="?" font-family="SourceSansPro-Regular, Source Sans Pro" font-size="21" font-weight="normal" line-spacing="28" fill="#4A4A4A">
                            <tspan x="160" y="21">?</tspan>
                        </text>
                        <text id="?-copy" opacity="0.763857887" font-family="SourceSansPro-Regular, Source Sans Pro" font-size="12" font-weight="normal" line-spacing="28" fill="#4A4A4A">
                            <tspan x="178" y="24">?</tspan>
                        </text>
                        <text id="?-copy-2" opacity="0.520252046" font-family="SourceSansPro-Regular, Source Sans Pro" font-size="12" font-weight="normal" line-spacing="28" fill="#4A4A4A">
                            <tspan x="148" y="32">?</tspan>
                        </text>
                        <path d="M169.447887,338 C167.304262,338 165.030982,337.893922 162.978115,337.787844 C160.933892,337.681766 159.10576,337.575688 157.835144,337.575688 C157.804891,337.575688 157.77896,337.575688 157.748707,337.575688 C147.605384,337.607225 137.45774,337.641628 127.314417,337.673165 C107.019128,337.739106 86.7281607,337.805046 66.4328716,337.870986 C66.3637224,337.870986 66.2902514,337.870986 66.2038149,337.870986 C60.5724772,337.870986 15.8502345,337.357798 3.39473556,333.536124 C-0.0367933075,332.483945 -1.01784753,331.179472 1.93828061,329.565367 C3.18728797,328.883028 5.66801539,328.733945 8.19628288,328.733945 C9.16869345,328.733945 10.1540695,328.756881 11.0746182,328.779817 C11.9994887,328.799885 12.8595318,328.822821 13.594242,328.822821 C13.8449078,328.822821 14.0782864,328.819954 14.2943776,328.81422 C28.9453636,328.40711 43.6049932,328.068807 58.2991974,328.011468 C60.110042,328.002867 61.9252084,328 63.736053,328 C91.482168,328 119.262858,328.825688 146.853387,330.47133 C151.21843,330.729358 182.832578,331.641055 177.60317,336.552179 C176.388737,337.693234 173.099829,338 169.447887,338" id="Fill-999" fill="#CDC6C0" opacity="0.421526228"></path>
                        <path d="M287.140491,340.746239 C285.94825,340.746239 284.683898,340.650769 283.542135,340.555299 C282.40518,340.459828 281.38841,340.364358 280.681718,340.364358 C280.664893,340.364358 280.65047,340.364358 280.633644,340.364358 C274.992133,340.392741 269.348219,340.423705 263.706708,340.452088 C252.418878,340.511434 241.133453,340.57078 229.845623,340.630127 C229.807164,340.630127 229.766301,340.630127 229.718227,340.630127 C226.586191,340.630127 201.712584,340.168257 194.785087,336.728751 C192.87654,335.781789 192.330898,334.607764 193.975036,333.155069 C194.669709,332.540964 196.049439,332.406789 197.455611,332.406789 C197.996446,332.406789 198.544492,332.427432 199.056482,332.448074 C199.570877,332.466136 200.049215,332.486778 200.457846,332.486778 C200.597261,332.486778 200.727062,332.484198 200.847247,332.479037 C208.99583,332.112638 217.149219,331.808166 225.321838,331.75656 C226.328993,331.748819 227.338552,331.746239 228.345707,331.746239 C243.777535,331.746239 259.228593,332.489358 274.573887,333.970436 C277.001636,334.202661 294.584786,335.023189 291.676295,339.4432 C291.000852,340.47015 289.171628,340.746239 287.140491,340.746239" id="Fill-999" fill="#CDC6C0" opacity="0.533017113"></path>
                        <path d="M93.5331789,381.746239 C92.4372807,381.746239 91.2750983,381.576514 90.225599,381.406789 C89.1805187,381.237065 88.2459119,381.06734 87.5963271,381.06734 C87.5808608,381.06734 87.567604,381.06734 87.5521376,381.06734 C82.3665064,381.117799 77.1786656,381.172845 71.9930343,381.223303 C61.6173528,381.328808 51.2438808,381.434312 40.8681993,381.539817 C40.8328477,381.539817 40.7952867,381.539817 40.7510972,381.539817 C37.8721549,381.539817 15.0085365,380.718716 8.64083755,374.604037 C6.88651661,372.920551 6.38496642,370.833395 7.89624541,368.250826 C8.53478288,367.159083 9.80301993,366.920551 11.0955612,366.920551 C11.5926924,366.920551 12.0964521,366.957248 12.5670697,366.993945 C13.0398967,367.026056 13.4795817,367.062753 13.855192,367.062753 C13.9833414,367.062753 14.1026529,367.058166 14.2131265,367.048991 C21.7032373,366.397615 29.197767,365.856331 36.7099725,365.764588 C37.6357414,365.750826 38.5637197,365.746239 39.4894886,365.746239 C53.6743002,365.746239 67.8767876,367.06734 81.9820582,369.700367 C84.2136251,370.113212 100.375914,371.571927 97.702453,379.429725 C97.0815913,381.255413 95.4001829,381.746239 93.5331789,381.746239" id="Fill-999" fill="#CDC6C0" opacity="0.533017113"></path>
                        <path d="M147.951953,105.521016 C147.561309,101.967035 143.139019,99.1294002 139.783487,100.246798 C136.387889,101.376807 134.795264,105.155276 132.864581,108.189654 C131.342071,110.583357 129.388851,112.699603 127.132632,114.407229 C126.07589,115.204289 124.808801,116.225837 125.024156,117.537456 C125.111801,118.079759 125.449858,118.541348 125.777899,118.977713 C127.100078,120.730741 128.467332,122.481247 130.192677,123.833222 C131.915517,125.185198 134.05905,126.120987 136.240146,125.987303 C140.261776,125.745158 143.266729,122.054971 144.719123,118.268935 C146.013758,114.894041 148.365134,109.228859 147.951953,105.521016" id="Fill-207" fill="#504B4B"></path>
                        <path d="M129.760762,171.3085 C129.760762,171.3085 113.059289,306.146358 113,326.151409 L122.986342,326.428304 C122.986342,326.428304 149.065799,217.524615 155.208662,211.534531 C155.208662,211.534531 157.750359,211.072192 158.729917,211.534531 C159.714631,211.994329 158.155071,322.579714 156.518177,330 L164.813491,330 C164.813491,330 186.850981,200.644162 185.974534,172.118863 C185.974534,172.118863 181.29843,157.793976 161.75366,159.081921 C142.206311,160.372405 131.725035,157.080145 129.760762,171.3085" id="Fill-208" fill="#566E9F"></path>
                        <path d="M186.777329,175.826326 C185.48407,157.594067 180.133182,120.862335 174.853435,103.783724 C174.573949,102.881874 174.276678,101.951762 173.720246,101.281156 C172.764912,100.137786 171.309044,100.024733 169.985296,100.004178 C166.715309,99.952791 158.119841,100.387015 154.857476,100.667076 C153.124662,100.8161 145.00178,100.299656 143.464606,101.30685 C141.541234,102.563272 140.242894,104.898831 139.104623,107.203557 C133.347209,118.883919 136.131907,132.753385 133.037234,145.908566 C131.472112,152.568377 125.884931,177.049346 126.001807,183.115632 C126.588727,184.752322 127.089262,186.486647 127.414482,188.205557 C130.806427,192.994865 139.757604,190.350982 144.295442,193.608944 C147.738203,196.083249 151.610355,197.267729 155.540946,198 C156.341293,197.925488 157.141639,197.83813 157.934364,197.732785 C162.50015,197.128983 172.264378,196.072972 176.382987,193.54471 C180.499055,191.016449 184.328014,195.119735 185.926166,189.754887 C187.23721,185.350985 187.110171,180.502581 186.777329,175.826326" id="Fill-209" fill="#504B4B"></path>
                        <path d="M174.406515,65.9636303 C173.477261,63.9019344 171.406277,62.5593746 169.250817,61.9333641 C167.095356,61.3073535 164.822138,61.2918326 162.582199,61.1935334 C160.068348,61.0848869 157.546817,60.867594 155.043206,61.1107552 C152.539595,61.3539163 150.012944,62.0989206 148.062278,63.7053361 C146.111611,65.3117516 144.831646,67.8830511 145.205396,70.3974406 L145.0518,77.7957471 C144.69085,83.3367165 146.226808,88.9837455 149.329443,93.5675914 C150.204939,94.855828 151.228911,96.0871545 152.570314,96.8606138 C154.18819,97.794456 156.120937,97.9807071 157.984565,97.9988148 C160.091388,98.0169226 162.262208,97.8358451 164.143757,96.8787216 C165.679714,96.0975018 166.9264,94.8532411 168.124447,93.6038069 C169.934318,91.7180148 171.728829,89.7132289 172.652963,87.2609231 C174.004606,83.6704163 173.305745,79.655671 173.86381,75.8582186 C174.109563,74.194893 174.59595,72.5755434 174.846823,70.9148047 C175.097696,69.2514791 175.097696,67.495028 174.406515,65.9636303" id="Fill-210" fill="#9C7458"></path>
                        <path d="M124.816082,325.473306 C121.145279,324.940807 113.724375,324.857128 110.033108,325.224806 C107.081118,327.121518 103.883555,328.637874 100.5453,329.733301 C99.5757985,330.0528 98.5551364,330.35455 97.8107437,331.044263 C97.063793,331.739048 96.7005498,332.958725 97.3016917,333.77776 C97.826092,334.49283 98.8288478,334.629759 99.7190493,334.698223 C106.536254,335.207901 117.085653,335.070973 123.872161,334.295045 C124.281449,334.246867 124.71376,334.188545 125.023284,333.91976 C125.271415,333.70676 125.401875,333.392332 125.506755,333.085511 C126.356028,330.60305 126.097665,327.765589 124.816082,325.473306" id="Fill-211" fill="#5E4A10"></path>
                        <path d="M167.05903,326 C167.05903,326 155.661734,326.414603 154.4776,327.092602 C153.293465,327.773039 152.079727,333.911609 154.021214,334.792032 C155.962702,335.672455 177.711308,333.472618 177.711308,333.472618 C177.711308,333.472618 179.514646,330.945975 174.107098,329.409504 C168.702017,327.873032 167.855854,327.87791 167.05903,326" id="Fill-212" fill="#5E4A10"></path>
                        <path d="M173.970471,143.181523 C169.380867,143.507738 164.763524,143.44723 160.184008,143 C159.334174,146.06221 158.479298,149.142835 158.111121,152.307645 C157.972424,153.509904 157.906858,154.754256 158.262426,155.901269 C158.615473,157.053544 159.472871,158.103219 160.605142,158.353141 L163.265599,160 C166.153014,156.414268 170.07183,153.930826 173.473684,150.876509 C175.811356,148.774528 177.909461,146.398948 180,144.03126 C178.270072,142.852677 176.033271,143.0342 173.970471,143.181523" id="Fill-213" fill="#CCCCCC"></path>
                        <path d="M202.888313,148.169671 C203.075317,150.069118 203.13344,152.092994 202.188312,153.746122 C200.854013,156.08234 197.907437,156.96858 195.228732,156.999052 C188.739189,157.067615 182.82582,153.405847 177.678157,149.439355 C176.59404,148.601363 175.497287,147.7329 174.200894,147.29105 C172.507751,146.714613 170.650346,146.938078 168.894025,146.597802 C168.583194,146.539397 168.242039,146.437822 168.087887,146.158492 C167.974168,145.950264 167.994385,145.696327 168.019655,145.457626 C168.209186,143.728317 168.403772,142.001547 168.608465,140.274777 C171.211358,139.759285 173.781399,141.061981 176.24783,142.057413 C178.726896,143.060463 181.307045,143.779104 183.88214,144.492667 C185.130518,144.84056 186.399112,145.190993 187.692978,145.168138 C188.98937,145.142745 190.336304,144.690737 191.157605,143.687687 C191.903094,142.773515 192.125477,141.519067 192.006704,140.34334 C191.890458,139.172692 191.463382,138.05283 191.033778,136.953284 C189.451826,132.928387 187.70814,128.893331 184.99911,125.52613 C184.119686,124.434202 183.083583,123.23816 183.209937,121.836429 C183.300912,120.858772 183.983223,120.005545 184.81716,119.487514 C185.651096,118.966943 186.62655,118.733322 187.589367,118.545408 C189.151103,118.240684 191.625115,117.489031 193.065551,118.542869 C194.66772,119.708439 195.370248,122.760759 196.11321,124.505304 C198.187943,129.383429 200.06051,134.368208 201.351848,139.520585 C202.064485,142.362137 202.597699,145.254477 202.888313,148.169671" id="Fill-214" fill="#9C7458"></path>
                        <path d="M170,143.746875 C170,144.806188 169.25029,145.708566 168.488043,146.458914 C167.174169,147.751178 165.674749,148.911028 163.924589,149.536318 C162.176937,150.164059 160.145949,150.205745 158.503608,149.342601 C156.863773,148.481908 155.735447,146.618301 156.053886,144.823353 C156.312147,143.356988 157.458025,142.153 158.794465,141.439435 C160.130905,140.725869 161.652892,140.429163 163.149805,140.166787 C165.850266,139.695981 169.997493,140.027016 170,143.746875" id="Fill-215" fill="#89796E"></path>
                        <path d="M195.856365,119.147963 C194.214955,113.125924 189.687634,108.387565 185.321637,103.922818 C181.695682,100.214981 173.606425,97.4507247 170.661617,103.718247 C168.292968,108.758348 172.922717,117.687842 174.53852,122.449216 C174.996886,123.791709 175.606333,125.282515 176.930216,125.788826 C177.485888,126.003625 178.097896,126.00874 178.689418,125.995954 C184.279431,125.875769 189.831033,124.361949 194.701488,121.625821 C195.213629,121.339422 195.759058,120.991653 195.935747,120.434199 C196.068903,120.017387 195.971596,119.569889 195.856365,119.147963" id="Fill-216" fill="#504B4B"></path>
                        <path d="M159.74624,63.7220746 C160.3426,63.6616129 160.831213,63.2207468 161.199553,62.7471306 C161.665615,63.9009402 163.554921,64.0495751 164.196383,62.9839387 C164.444449,63.8480363 165.832613,64.0369789 166.301181,63.2736507 C166.208469,63.7321515 166.646969,64.1654599 167.10802,64.2359985 C167.571576,64.3040178 168.027616,64.112556 168.448575,63.9084979 C168.280693,64.8028263 169.510997,65.5863084 170.242664,65.0471921 C169.96453,66.1984825 170.929229,67.4807731 172.109419,67.5236001 C171.415337,68.6547366 171.921491,70.342624 173.119221,70.9018941 C172.334933,71.7130878 172.380036,73.184321 173.214438,73.9426107 C172.487781,74.514477 172.560447,75.8244792 173.34724,76.3081723 C173.008969,76.6633844 173.051566,77.2251738 173.116715,77.7113861 C173.226966,78.5276182 173.337218,79.3488888 173.444963,80.1651209 C172.848604,80.4649099 173.059084,81.5758925 173.723097,81.6363541 C172.981407,82.3845669 172.968878,83.7323576 173.693029,84.4956858 C173.269563,84.7627247 172.946327,85.1909946 172.808513,85.6746877 C172.818535,86.1205923 173.510112,86.0475345 173.89098,85.8157649 C175.479601,84.8584556 177.035647,83.8482424 178.556614,82.7851253 C178.927459,82.5256441 179.313339,82.246009 179.508784,81.8378929 C179.706735,81.4297769 179.641587,80.8553913 179.250696,80.6286602 C179.877124,80.3868136 180.541137,80.1172555 180.939545,79.5731007 C181.340459,79.0314652 181.322919,78.1220214 180.734077,77.7945209 C181.337953,77.892771 181.921784,77.474578 182.270078,76.9707311 C182.620877,76.4643648 182.803794,75.8647869 183.096962,75.3231514 C183.570542,74.4414192 184.339795,73.3833405 183.750953,72.5746661 C183.961433,72.1715885 184.357335,71.9121073 184.708135,71.6274338 C185.058934,71.3427602 185.399711,70.9673942 185.409734,70.5164512 C185.422262,70.0629889 184.908592,69.6145651 184.522712,69.8488539 C185.449825,69.3324107 186.043679,68.2642551 185.99607,67.1986188 C186.256664,66.5511754 186.46965,65.8785397 186.637532,65.195827 C186.379444,65.1076538 186.123861,65.0169613 185.865773,64.9262689 C186.439581,64.0394982 186.94824,62.6967459 186.093793,62.0744949 C186.963275,61.9031869 187.319086,60.5881463 186.657578,59.9961261 L186.176481,59.55526 C185.910876,59.1017977 186.349375,58.5727584 186.464638,58.0563152 C186.650061,57.2148907 185.675339,56.3659086 184.871006,56.670736 C185.119071,55.5572341 184.189452,54.3354052 183.056871,54.2850205 C182.82384,54.2749436 182.573269,54.3026552 182.375318,54.1817319 C182.129758,54.033097 182.057092,53.7156734 181.951852,53.443596 C181.681236,52.7558449 181.037268,52.2293248 180.310612,52.1033631 C179.984869,52.0479399 179.631564,52.0605361 179.363453,51.8715934 C179.050239,51.6549392 178.944999,51.2392655 178.681899,50.9671881 C177.8926,50.1484368 176.301474,51.0352074 175.452038,50.279437 C175.086204,49.9519364 174.968436,49.3926663 174.557499,49.1256274 C173.971162,48.7376652 173.191886,49.1684544 172.495299,49.0979158 C171.570691,49.0072233 170.813966,48.0373179 169.904393,48.221222 C169.538559,48.2967991 169.22284,48.5562803 168.851995,48.6041457 C168.195498,48.6847613 167.67431,48.0952603 167.12556,47.7198943 C166.579315,47.3445283 165.584547,47.3445283 165.496847,48.0045678 C164.787731,46.7600658 162.733048,46.6467002 161.893635,47.8055483 C161.988852,47.4327015 161.20707,47.3672014 161.239644,47.7526443 C160.615722,47.4956824 159.969249,47.2362012 159.292707,47.2412396 C158.616165,47.2437589 157.897026,47.5813364 157.643949,48.2111451 C156.844627,47.8005098 155.81478,47.4100284 155.118192,47.9768562 C154.850081,48.1935104 154.68721,48.521011 154.411581,48.725069 C153.862831,49.1306658 153.101094,48.9266078 152.422047,48.9467617 C151.740493,48.9694348 150.926137,49.5866474 151.25188,50.1862253 C150.62044,50.0728597 149.946404,49.9594941 149.345033,50.1887445 C148.743663,50.4230334 148.280106,51.1410153 148.555734,51.7279971 C147.565979,51.7783818 146.709025,52.7256141 146.751622,53.7232311 C146.761645,53.9600392 146.81176,54.2094435 146.709025,54.4235784 L146.1277,54.8946754 C145.238173,55.4413493 144.864822,56.703486 145.313344,57.6532376 C144.674388,57.8169879 144.020397,58.0512767 143.569369,58.5324506 C143.118341,59.0161437 142.942942,59.8147412 143.331327,60.3513382 C143.474152,60.5503578 143.692149,60.7115888 143.749781,60.9534354 C143.827458,61.2910128 143.564358,61.5958403 143.403992,61.9031869 C143.020619,62.6413228 143.311281,63.6540552 144.022903,64.0772867 C143.048181,64.6390761 142.807633,66.1556555 143.564358,66.9895223 C142.704899,68.1105818 142.998067,69.7027383 143.328821,71.0732021 C143.524267,71.8793573 143.719712,72.6829932 143.915157,73.4866291 C143.459118,74.1038417 143.669598,75.103978 144.333611,75.479344 C143.839986,75.9428832 144.027914,76.9127887 144.659354,77.1546352 C144.714479,78.2303485 145.082819,79.2909464 145.714258,80.1651209 C145.854578,80.5127754 146.33818,80.0971016 146.430891,79.7343318 C146.901965,77.8826941 147.375545,76.0285372 147.849124,74.1768995 C148.104706,73.1692055 148.340243,72.0153959 147.756413,71.1613753 C148.520655,70.6197398 149.01428,69.710296 149.056877,68.7731406 C150.15939,69.0502564 151.294477,67.7301773 150.860989,66.6720987 C152.008604,66.901349 153.1913,65.7198279 152.973303,64.5660183 C154.018185,64.938865 155.301109,64.0747674 155.353729,62.9612656 C155.641886,63.6767283 156.967407,63.4147279 156.964901,62.6413228 C156.967407,63.0242465 158.240308,62.7773615 158.400674,62.8479 C158.949424,63.0922658 158.936896,63.8001708 159.74624,63.7220746" id="Fill-217" fill="#242424"></path>
                        <path d="M163.698127,156.173084 C163.97495,157.161252 164.063838,158.230862 163.954633,159.267895 C147.406222,160.633412 130.814638,161.195365 114.230672,160.940179 C112.91005,154.280906 117.532227,156.175799 121.169017,156.479851 C125.958812,156.881633 130.758765,157.134105 135.561258,157.23998 C138.088218,157.296989 163.502574,155.47268 163.698127,156.173084" id="Fill-218" fill="#F7F7F7"></path>
                        <path d="M113,112.429098 C130.25625,111.923804 146.114499,111.755372 162.880443,110 C163.597044,124.743021 164.811494,144.183703 163.212343,158.818823 C151.741701,160.203119 138.900718,158.710921 127.392361,159.471495 C124.573731,159.655717 121.654526,160.100481 118.835896,159.979421 C116.02481,159.858361 115.459072,157.508215 115.109572,154.100108 C114.400515,147.170731 114.631838,139.922912 114.229536,132.938267 C114.11136,130.867086 113.746773,112.521209 113,112.429098" id="Fill-219" fill="#BBB9B9"></path>
                        <path d="M129.893067,160.250048 C130.764714,159.557745 131.682669,158.780885 131.933267,157.713363 C132.183866,156.659053 131.699012,155.54661 130.974455,154.722187 C130.249897,153.895122 129.304704,153.290017 128.422161,152.624137 C127.005733,151.556615 125.709157,150.309411 124.088437,149.56426 C122.470441,148.824393 120.375762,148.708128 119.024708,149.849637 C118.191194,150.549868 117.777162,151.604178 117.44757,152.629422 C116.657639,155.084193 116.178233,157.636734 116.025694,160.205128 C115.968492,161.172239 115.968492,162.192198 116.442451,163.043045 C116.954544,163.967878 117.965111,164.554487 119.011088,164.816083 C123.009773,165.81226 127.022077,162.543635 129.893067,160.250048" id="Fill-221" fill="#9C7458"></path>
                        <circle id="Oval" fill="#F0F8FF" cx="138" cy="134" r="6"></circle>
                    </g>
                    <g id="Group" transform="translate(57.500000, 361.500000) scale(-1, 1) translate(-57.500000, -361.500000) translate(21.000000, 342.000000)">
                        <path d="M13.3065987,7.26341962 C12.4840612,8.35684024 12.253825,9.77297917 11.3607313,10.8175674 C10.0591539,12.3334942 7.61196563,12.7857245 6.51091659,14.4311633 C5.58068796,15.8197013 5.97988787,17.766627 7.22947642,18.923742 C8.47720822,20.080857 10.4082217,20.4800086 12.1461339,20.1763986 C12.9538174,20.0341478 13.731793,19.7560156 14.5487603,19.6817054 C18.5611835,19.3122779 21.9460274,23.796364 25.8526163,22.8749182 C27.7260707,22.4311806 29.0332183,20.7921112 29.5605335,19.0766086 C30.0897055,17.3589828 29.9912981,15.5415691 29.9950116,13.7581258 C29.9968683,11.520329 30.1286971,9.14028142 28.8995328,7.2124641 C27.7780595,5.45449853 25.6465177,4.37381679 23.4574168,4.08931512 C21.2683159,3.8026903 19.0309397,4.23581225 16.9662407,4.96192846 C15.5662559,5.45449853 14.1625576,6.12753607 13.3065987,7.26341962" id="Fill-3812" fill="#593815"></path>
                        <path d="M35.8782418,14.6929069 C38.1708974,16.3684997 41.0936536,16.4726927 43.8209268,16.2196527 C46.5500979,15.9644862 49.3115332,15.4116257 52.0046443,15.968739 C54.8438933,16.5577482 57.4990465,18.4778755 58.9205689,21.295338 C60.3420912,24.1128006 60.4009259,27.8084609 58.8503468,30.5387416 C57.6091244,32.7246672 55.4948708,34.1387145 53.2895184,34.9190984 C52.3083073,35.2656995 51.2378953,35.5017284 50.2566843,35.153001 C49.7195804,34.9637526 49.2432091,34.6107723 48.7402672,34.3300893 C46.9069019,33.3136764 44.7603842,33.2860333 42.7353317,33.5837275 C40.7064833,33.8792953 38.7174907,34.4789364 36.6772551,34.6469209 C33.7203367,34.889329 30.6875026,34.2237699 27.8102958,35.0254178 C26.1059873,35.5017284 24.5269398,36.47774 22.8017544,36.834973 C20.3572674,37.3389266 17.8691288,36.5670482 15.4132544,36.1438972 C12.4772128,35.6378172 11.9192321,35.1615065 8.98508849,35.6505755 C8.05701848,35.8058017 6.75126763,35.7122407 6.64498559,34.6703112 C5.97123333,34.8170319 4.99951177,34.7277236 4.95396233,33.9622244 C4.9330855,33.6538983 5.10010014,33.3732152 5.27091057,33.1308071 C6.48176673,31.4169393 8.33411096,30.2899543 10.2775541,30.0879476 C11.5795091,29.9518588 12.9649715,30.5089721 14.2213771,30.1049586 C14.9065167,29.8838144 15.544209,30.1347281 16.2388381,29.9667435 C17.7970088,29.5882466 16.8860198,29.9731227 18.4802505,29.947606 C18.8389524,29.9412269 19.2697743,29.8306547 19.3874437,29.4500315 C19.579131,28.8376321 18.8237693,28.4485033 18.2676864,28.2677604 C17.7116036,28.0870175 16.6354979,27.6532346 17.1137671,27.2874961 C14.9349851,28.5037894 15.4986596,28.4740199 13.0864367,28.820621 C11.7901753,29.007743 10.1390078,28.2805187 8.95851797,28.9120556 C8.26958257,29.2799206 7.62619662,29.8434131 6.86134547,29.9072047 C6.34891418,29.9497324 5.84597235,29.7583576 5.36011157,29.5669828 C4.58197517,29.2629095 4.11129754,29.7519784 3.33316113,29.4479051 C2.94409293,29.2948053 2.53604579,29.1289471 2.25895331,28.7865988 C1.98186084,28.4442505 1.88886405,27.8658733 2.1716502,27.5277778 C2.34625642,27.3215183 2.61006364,27.2534739 2.85868771,27.1960615 C5.62581669,26.5496399 8.39104777,25.9032183 11.1581767,25.2589231 C13.2667366,24.7656013 13.1680461,24.5635946 14.2897013,22.5031257 C15.1209787,20.97638 15.115285,18.9307959 16.2217571,17.6422054 C17.1023797,16.617287 18.6206947,16.1537347 18.9471324,14.7779624 C19.0591081,14.3016517 18.9983755,13.7913189 19.0913723,13.3065027 C19.4197079,11.582003 21.3688447,11.0525327 22.9440964,11.0078785 C25.3601151,10.9355814 27.7438695,11.3863754 30.1371135,11.3204574 C32.6594141,11.2502866 33.9101261,13.2554694 35.8782418,14.6929069" id="Fill-3813" fill="#593815"></path>
                        <path d="M57.6518632,23.6198366 C58.1555305,24.3248767 58.4246657,25.2861026 59.137874,25.7159018 C59.6972908,26.0525426 60.375896,25.9657359 61.0122085,25.9339773 C64.1130306,25.7794189 67.0850523,27.1556234 69.9359631,28.506421 C70.7760494,28.9044617 71.6449717,29.3236747 72.2735946,30.0583562 C72.9022176,30.7930377 73.230947,31.936346 72.8137875,32.8340547 C72.1774749,34.199673 70.3473555,34.1615627 69.0997216,33.4755777 C67.8559324,32.79171 66.771702,31.6589879 65.3991124,31.4028021 C64.095729,31.1593198 62.7692769,31.7733187 61.6946585,32.622331 C60.6161953,33.4713433 59.7126699,34.5574862 58.6707322,35.4551949 C57.1981781,36.721303 55.4737904,37.5914877 53.7167219,38.2901761 C52.2249439,38.8830027 50.539004,39.3530294 49.0895187,38.6416376 C48.3397849,38.2732382 47.7380755,37.6190118 47.199805,36.9372613 C45.6195969,34.9364717 44.4123332,32.1438353 45.3024018,29.6836051 C45.8368274,28.2142422 46.9768073,27.2614853 48.0341242,26.2642664 C49.0203125,25.3326818 49.5278246,24.1004495 50.4198156,23.1625132 C52.0365492,21.4581369 56.2389033,21.6423366 57.6518632,23.6198366" id="Fill-3814" fill="#593815"></path>
                        <path d="M60.1814393,20.2793334 C62.1108761,20.4085268 64.1328334,20.5213146 65.8926494,19.6620764 C66.5402925,19.3462705 67.2091382,18.8910177 67.9049691,19.0489207 C68.9997943,19.2970539 69.2966308,20.9683646 68.6913928,21.9670496 C68.0822999,22.9657345 66.958562,23.4353421 65.9080694,23.843429 C64.46822,24.4053174 63.0283706,24.9672059 61.5865936,25.5290944 C60.5977813,25.9146237 59.4374208,26.2837475 58.548839,25.682896 C57.8510806,25.2112378 57.5542442,24.2740734 56.9278037,23.6978301 C55.8773111,22.7340068 50.0234654,21.4707831 52.6892107,18.4665254 C53.6182702,17.4206745 54.7304431,18.3927006 55.5920397,18.8705109 C57.1725973,19.7482053 58.3637981,20.1583429 60.1814393,20.2793334" id="Fill-3815" fill="#593815"></path>
                        <path d="M5.46916493,35.9603559 C6.37838721,36.03654 7.29342541,36.0024576 8.19489313,35.8621186 C8.75516016,35.7739055 9.31736583,35.6415859 9.81365774,35.3609078 C10.3118883,35.0802298 10.7422664,34.6371594 10.916744,34.079813 C11.2753925,32.9390573 10.4243294,31.6840254 9.34062952,31.2529842 C8.25692961,30.8219429 7.04140218,31.012403 5.91505219,31.3011004 C5.06011184,31.5196283 4.17415324,31.8163451 3.57123612,32.4839579 C3.03423277,33.0793963 2.8093505,34.1379535 3.18932399,34.8897697 C3.59256117,35.6836876 4.68789291,35.8941961 5.46916493,35.9603559" id="Fill-3816" fill="#393318"></path>
                        <path d="M3.36834147,29.9999332 C2.53377712,29.9482982 1.66292735,29.8509861 0.956316802,29.378327 C0.253525766,28.905668 -0.218184522,27.9464482 0.102654864,27.1401475 C0.425404008,26.3338468 1.37073434,26.008149 2.21102797,26.0002052 C3.50966358,25.9882894 4.75864548,26.4986817 6.04582254,26.6794043 C8.15801517,26.9753127 10.4573641,26.4053415 12.338476,27.4459857 C12.5771958,27.5770592 12.812096,27.7438801 12.9324108,27.9941113 C13.0527256,28.2423566 13.0164402,28.5938719 12.7910887,28.7428191 L12.4530615,28.8480751 C10.9157061,29.0943344 9.34779456,29.2651272 7.83526602,29.640474 C6.32464724,30.013835 4.90951638,29.9999332 3.36834147,29.9999332" id="Fill-3817" fill="#393318"></path>
                        <path d="M29.9920547,12.2692005 L29.9677434,11.8758222 L29.960263,11.8758222 L29.9396918,11.6376097 C29.816265,10.6476075 28.3818954,10.8748928 28.4417387,11.8758222 C28.5950872,14.5879473 25.4570531,16.524243 23.6916751,17.5688811 C23.3980689,17.7437159 23.0988523,17.9076235 22.7958954,18.0693457 C20.5274596,18.7206055 18.3300877,18.6659696 15.9980683,18.4343134 C14.6366327,18.2988165 14.6983461,20.6809409 15.9980683,20.8776301 C20.5648617,21.5725985 30.3174528,19.3871632 29.9920547,12.2692005" id="Fill-3818" fill="#D3E4EA"></path>
                        <path d="M25.2714291,8.53449296 C26.3876949,9.41542414 27.2122536,10.5634347 27.6323119,11.8148308 C28.3615796,13.9859277 27.8637328,16.3056414 27.3639413,18.5262772 C27.2783739,18.9010499 27.1850276,19.2908996 26.9186018,19.5989025 C26.652176,19.9047515 26.1582187,20.1007533 25.7517735,19.9456749 C25.347273,19.7905966 25.1916958,19.3749004 25.0808471,19.0065893 C24.7949742,18.0696576 24.511046,17.1327259 24.225173,16.1957942 C24.0093098,15.4871723 23.7876124,14.7656272 23.3500517,14.1345445 C22.37575,12.7366855 20.4640962,11.9634476 19.5286888,10.5440499 C18.7955316,9.42834734 18.5699448,6.42801203 20.5593872,6.02093136 C21.79817,5.76892904 24.4235338,7.86248677 25.2714291,8.53449296" id="Fill-3819" fill="#593815"></path>
                        <path d="M59.6395227,16.7083623 C60.8791698,14.1008337 62.1553903,11.3551719 62.4094795,8.20573627 C62.6308451,5.45794935 62.04567,2.72291318 61.4681947,0.0877578893 C62.7617395,-0.381894787 64.0129361,1.10994313 64.7367052,2.7420393 C65.1775114,3.73872304 65.8550825,5.01167305 66.5961759,4.518644 C66.5249539,5.4366981 66.9272618,6.38662907 67.5201365,6.70752298 C67.4989624,7.70208159 67.4777883,8.69876533 67.4546893,9.69332393 C67.6356316,9.67207268 67.8165738,9.6486963 67.9936663,9.62744505 C68.0514138,10.7197594 67.7107034,11.8397004 67.1178286,12.51124 C67.3122454,12.6833751 67.5393857,12.7747555 67.7684509,12.7683801 C67.8954955,14.0710819 66.2785645,14.3600989 66.1187963,15.6543002 C66.0822228,15.9369419 66.1264959,16.245085 66.0417996,16.5043503 C65.9686527,16.7232382 65.8185091,16.8613713 65.6779901,16.9888789 C63.9243899,18.569972 62.1707897,20.1489401 60.4171895,21.7279081 C59.7973659,22.2846909 59.1505935,22.8584747 58.4268244,22.9753566 C57.2391501,23.168743 56.5808282,22.2039362 57.2968976,20.7843525 C58.0091172,19.3711442 58.9388526,18.1853244 59.6395227,16.7083623" id="Fill-3820" fill="#593815"></path>
                    </g>
                    <g id="Group-4" transform="translate(182.000000, 288.000000)">
                        <path d="M26.1694748,9.94610078 C25.6927995,9.53716413 26.3189408,8.73914211 26.8481312,9.08455462 C34.4224217,14.0672294 32.6005523,25.2236567 28.0600177,31.5760708 C27.3490443,32.5726057 25.6726014,31.6316544 26.3835748,30.6112979 C30.6090189,24.568564 32.4430071,15.3575635 26.1694748,9.94610078" id="Fill-1681" fill="#999999"></path>
                        <path d="M96.5657365,45.1151928 C96.1778593,45.5335966 95.67916,45.9081676 95.0909506,45.9838787 C93.7397741,46.1631946 92.780737,44.8123482 92.2522011,43.6368329 C90.5685583,39.9150319 89.4688625,35.9621127 89,31.9454367 C89.5029616,30.4073048 90.355439,28.9687928 91.4892339,27.7613991 C91.9495716,27.2672842 92.6869645,26.7771541 93.2922234,27.1078923 L93.8889576,27.9765782 C94.8053707,30.3913656 95.7217839,32.806153 96.638197,35.2209403 C97.8742892,38.4884744 98.9867721,42.4892112 96.5657365,45.1151928" id="Fill-1682" fill="#8C674B"></path>
                        <path d="M48.8164002,43.2993232 C48.6662404,43.8526597 48.3992896,44.4018974 47.9196125,44.7216029 C46.8100984,45.4552861 45.3502115,44.602738 44.340804,43.7378936 C41.1624216,40.9999028 38.3928075,37.8028477 36.1445817,34.2819882 C35.881802,32.6465716 35.9777374,30.9578706 36.4282168,29.3593431 C36.6075744,28.7117345 37.0330271,27.9493598 37.7170884,28.002644 L38.6389027,28.5559805 C40.5492691,30.408633 42.4554643,32.2571866 44.3616595,34.1098391 C46.9435738,36.614199 49.7507278,39.8563408 48.8164002,43.2993232" id="Fill-1683" fill="#8C674B"></path>
                        <path d="M106.821832,17.3781221 C107.846435,21.8214586 104.289243,26.0844973 100.318903,28.5084997 C92.2005714,33.4606763 82.0991357,33.8813709 72.5141333,34.1578274 C63.9165514,34.4022309 55.323101,34.6466345 46.7213876,34.8950446 C39.6565798,35.0953754 32.3769357,35.2636532 25.7583263,32.8436575 C19.1438483,30.4196552 13.2812973,24.734268 13.0086205,17.8829556 C12.9342541,15.9878265 13.3308749,13.9845188 14.5951037,12.534124 C16.1609295,10.7351537 18.7141758,10.1221416 21.0939006,9.65737418 C45.068801,4.94960108 69.9815443,4.78532985 94.0225482,9.17257372 C99.3645344,10.1461813 105.636101,12.2376345 106.821832,17.3781221" id="Fill-1684" fill="#A67C52"></path>
                        <path d="M82.0007334,33.7551844 C81.9845077,31.3719038 82.2278931,28.831351 83.6963183,26.9481158 C85.1606871,25.060848 88.2273431,24.2502906 90,25.86334 C89.9959436,33.2269107 89.9959436,40.5945139 89.9918872,47.9580846 C88.466672,48.7363809 86.72241,49.0952844 85.0105994,48.9783383 C83.0675727,44.1512879 82.0412977,38.9572688 82.0007334,33.7551844" id="Fill-1685" fill="#A67C52"></path>
                        <path d="M33.0007334,34.7545194 C32.9845077,32.3711349 33.2278931,29.834504 34.6963183,27.9471539 C36.1606871,26.0638365 39.2273431,25.249211 41,26.8623308 C40.9959436,34.2262227 40.9959436,41.5941473 40.9918872,48.9580391 C39.466672,49.7363694 37.72241,50.0952886 36.0105994,49.9783374 C34.0675727,45.1510764 33.0412977,39.9568307 33.0007334,34.7545194" id="Fill-1686" fill="#A67C52"></path>
                        <path d="M32,9.70611691 C29.9653455,7.65837407 27.9266379,5.60650272 25.8919833,3.55875988 C24.3923376,2.04772384 22.7589396,0.462374547 20.6797011,0.0866797927 C17.2913123,-0.524340247 14.3203924,2.21286439 11.7993663,4.59501684 C10.9684815,5.38356298 10.0484285,6.18862316 8.92572076,6.3496352 C6.3398451,6.72945847 3.80665969,3.61655908 1.47207602,4.80557105 C0.219669154,5.43723365 -0.226171477,7.12579579 0.106182448,8.50884791 C0.44258947,9.89602854 1.36669551,11.0396269 2.29485464,12.1130404 C5.31846474,15.6222772 8.59741993,18.9044456 12.0911892,21.9306462 C13.2098439,22.900847 14.4500915,23.8834332 15.9132594,23.9907746 C17.0683919,24.0733449 18.1910997,23.5903088 19.1922146,22.9958028 C23.8897536,20.2049275 26.8282487,14.5901487 26.4796824,9.05794024 L26.1432753,8.22810897 L32,9.70611691" id="Fill-1687" fill="#A67C52"></path>
                        <path d="M107.119136,17.7559487 C105.484156,18.3920647 103.004225,17.7725792 103,16.0388515 C105.403885,14.3882762 107.14026,11.8230243 107.761299,9 C108.614699,9.02910334 109.4681,9.05820669 110.317275,9.09146765 C112.011402,12.1431611 110.405995,16.4837169 107.119136,17.7559487" id="Fill-1688" fill="#A67C52"></path>
                        <path d="M112.609556,3.0199661 C115.143512,2.77938369 117.648951,4.73903679 117.995231,7.49042474 C118.072635,8.11156478 117.184528,8.17280394 117.021573,7.63039996 C116.394194,5.55701699 114.683163,4.14851633 112.609556,4.38909874 C111.798853,4.48095748 111.794779,3.09870217 112.609556,3.0199661" id="Fill-1689" fill="#333333"></path>
                        <path d="M119.903452,4.00136068 C121.043452,3.96508228 122.047452,4.65799971 122.419452,5.63026082 C122.995452,7.10679169 122.215452,8.51076576 121.431452,9.79139327 C121.143452,10.2666403 120.363452,9.84581087 120.635452,9.36693599 C121.291452,8.20965504 122.611452,4.96273827 119.903452,4.98087747 C119.203452,4.98813315 119.211452,4.02312772 119.903452,4.00136068" id="Fill-1690" fill="#333333"></path>
                        <path d="M32.5922939,6.70562567 C31.9961405,5.75266532 30.707809,5.77699622 30.0996526,6.70562567 C27.6870318,10.4323089 25.1423771,14.0535582 22.3816668,17.5288222 C20.501183,19.9010852 18.2886137,22.1111421 16.6441906,24.6739972 C14.8757356,24.7713208 14.251575,27.5693746 16.2000764,27.9383933 C20.2651223,28.7048167 23.9420683,22.1192524 26.0346067,19.3495847 C27.8950853,16.8718878 29.6595393,14.3090327 31.2959603,11.6691298 C32.2722115,10.1038417 33.7125821,8.49800216 32.5922939,6.70562567" id="Fill-1691" fill="#333333"></path>
                        <path d="M11.674257,15.7897033 C13.6525893,13.7704207 15.7219744,11.8387517 17.874135,10.0072123 C19.3972025,8.70552607 21.0568495,7.41218395 23.0227654,7.07007409 C24.9886813,6.72379217 27.3229478,7.67502444 27.8734043,9.61086556 C28.4073057,11.4882977 27.1532582,13.3657298 25.9654311,14.9093962 C24.3802821,16.9745715 22.7992718,19.0397469 21.2141227,21.1049222 C19.6331125,23.1700975 17.9527717,25.3103702 15.6019501,26.4034529 C13.2511285,27.4923635 10.0187489,27.1419095 8.64881587,24.9265396 C7.73828639,23.4496263 7.85831073,21.5054411 8.56190169,19.9158819 C9.26135389,18.3263227 10.4615973,17.0246364 11.674257,15.7897033" id="Fill-1692" fill="#534741"></path>
                        <path d="M15.0128199,27.866 L15.2288199,28.786 L16.0328199,29.306 L17.0088199,29.358 C17.6848199,29.326 18.3728199,29.266 18.9968199,29.002 L18.9208199,28.146 L18.6888199,28.546 L18.3688199,28.742 C17.9488199,28.882 17.5128199,28.958 17.0728199,28.966 C16.4728199,28.978 15.8048199,28.822 15.4888199,28.314 C15.2128199,27.87 15.6128199,26.826 15.1608199,26.642 C14.9608199,26.962 15.0048199,27.486 15.0128199,27.866" id="Fill-1693" fill="#B3B3B3"></path>
                        <path d="M17.512,29.257848 C17.34,28.878315 17.12,29.0061169 16.94,29.0913182 C16.788,29.1610283 16.592,29.1339188 16.448,29.563798 C16.276,30.105988 16.256,31.2484598 16.256,32.3018575 C16.264,33.2700539 16.3,34.2576142 16.46,34.695239 C16.62,35.1173726 16.84,35.0011891 17.004,34.9276061 L17.22,34.7804403 L17.524,34.4473807 C17.704,33.9749009 17.744,32.8285563 17.744,31.7712858 C17.74,30.6946514 17.7,29.6683632 17.512,29.257848" id="Fill-1694" fill="#ABABAB"></path>
                    </g>
                </g>
            </g>
        </g>
    </g>
</svg>